<svg xmlns="http://www.w3.org/2000/svg" width="400.577" height="189.773" viewBox="0 0 400.577 189.773">
  <g id="logo" transform="translate(-2452 -415.14)">
    <g id="Raggruppa_5" data-name="Raggruppa 5" transform="translate(2452 415.14)">
      <g id="Raggruppa_4" data-name="Raggruppa 4" transform="translate(0 0)">
        <path id="Tracciato_40" data-name="Tracciato 40" d="M2594.314,517.529c-.015-1.6-.1-3.206-.033-4.8a80.214,80.214,0,0,0-.405-8.23,27.489,27.489,0,0,0-.727-3.756,1.422,1.422,0,0,0-.164-.327,1.456,1.456,0,0,0-.164.446c-.02,1.345-.02,2.691-.027,4.036,0,.7,0,1.41-.022,2.114-.006.143-.144.281-.221.422-.055-.11-.153-.22-.157-.332-.025-.768.021-1.541-.048-2.3-.214-2.349-.463-4.694-.716-7.039a4.127,4.127,0,0,0-.257-.917c-.039-.106-.16-.182-.244-.272-.047.085-.133.167-.139.254-.064,1.149-.19,2.3-.161,3.449a44.893,44.893,0,0,1-.217,7.091,10.1,10.1,0,0,0-.033,1.344q0,4.514.008,9.026a1.058,1.058,0,0,1-.05.377,1.526,1.526,0,0,1-.214.307c-.081-.089-.228-.176-.23-.266-.025-1.215-.032-2.43-.037-3.645-.021-4.931-.013-9.863-.082-14.793a16.207,16.207,0,0,0-.489-3.02c-.325-1.564-.674-3.124-1.065-4.672a4.651,4.651,0,0,0-.673-1.565c-.765-1.06-1.337-2.283-2.736-2.8-.6-.222-1.051-.883-1.516-1.393-.128-.14-.1-.459-.08-.688.039-.362.305-.95.184-1.037-.858-.615-.167-1.023.126-1.48.449-.7.887-1.4,1.374-2.067a3.584,3.584,0,0,1,3.051-1.556c.982-.013,1.983-.625,2.935-.537a6.358,6.358,0,0,0,2.793-.248,4.442,4.442,0,0,1,1.855.1c.511.065.763-.045.769-.508.008-.441.1-1-.128-1.3a4.69,4.69,0,0,1-.52-2.764c-.075-1.209-.326-2.412-.333-3.619-.014-2.565-.712-5.026-1-7.546a14.876,14.876,0,0,1-.338-3.938,11.879,11.879,0,0,0-.283-3.047c-.441-3.554-.9-7.106-1.337-10.66-.118-.949-.2-1.9-.314-2.853-.011-.091-.166-.18-.273-.231-.025-.012-.178.127-.182.2-.024.447-.025.9-.028,1.344q-.064,8.072-.127,16.143a5.915,5.915,0,0,1-.049,1.149,7.8,7.8,0,0,0-.006,3.613,2.33,2.33,0,0,1-.07.933c-.014.081-.183.178-.286.185s-.271-.088-.282-.159a7.568,7.568,0,0,1-.153-1.316c.038-4.163.1-8.326.143-12.489a65.448,65.448,0,0,0-.446-10.534c-.21-1.386-.609-2.745-.934-4.114q-.353-1.494-.741-2.979c-.1-.369-.124-.85-.371-1.066a2.522,2.522,0,0,1-.753-1.693,1.589,1.589,0,0,0-.432-.834.852.852,0,0,1-.121-1.192,1.28,1.28,0,0,0,.211-.907c-.435-1.083.282-1.55.9-2.231.942-1.033,2.353-1.3,3.293-2.282a.47.47,0,0,1,.34-.14c1.3.173,2.639-.188,3.915.576.613.367.65,1.276,1.478,1.306.607,1.169,1.738,2.056,1.882,3.477.007.064.038.125.039.188.02.972,1.178,1.437,1.016,2.588a7.459,7.459,0,0,0,.461,2.585,2.1,2.1,0,0,0,.454.82,1,1,0,0,1,.23,1.035,2.811,2.811,0,0,0,.411,2.538,2.234,2.234,0,0,1,.173,1.24,9.215,9.215,0,0,0-.162,1.106c.1.816.378,1.614.443,2.43.058.738-.316,1.465,0,2.248a1.723,1.723,0,0,1-.044,1.288c-.749,1.423-.172,2.855-.1,4.269a9.918,9.918,0,0,1-.022,1.864,8.209,8.209,0,0,0,.413,3.947,2.952,2.952,0,0,1,.119,1.466,7.66,7.66,0,0,0,.17,3.017c.215.756.7,1.639.163,2.526a1.124,1.124,0,0,0,.036.755c.59,2.138.385,4.413,1.124,6.528a1.83,1.83,0,0,1,.084,1.12,4.377,4.377,0,0,0,.262,2.972c.294.912.394,1.04,1.3.812,1.365-.343,2.719-.731,4.072-1.117,2.4-.683,4.792-1.381,7.188-2.067.8-.229,1.6-.465,2.406-.655a24.48,24.48,0,0,0,5.758-2.1c1.874-.977,3.784-1.883,5.675-2.826.458-.228.918-.458,1.357-.719a1.3,1.3,0,0,0,.747-1.533,13.656,13.656,0,0,1,.2-2.939,4.692,4.692,0,0,0-.006-1.52,12.783,12.783,0,0,1-.176-3.321,8.381,8.381,0,0,0-.184-3.2.907.907,0,0,1-.008-.38c.08-1.3.6-2.613-.07-3.9.375-1.78-.075-3.533-.141-5.3-.046-1.25-.489-2.469-.151-3.767a5.148,5.148,0,0,0-.263-1.873c-.344-2.2-.677-4.4-.893-6.628a17.409,17.409,0,0,0-.572-3.894,2.5,2.5,0,0,1,0-.932,7.353,7.353,0,0,0,.122-1.113,4.689,4.689,0,0,1,2.291-4.678,1.629,1.629,0,0,1,1.623-.254,2.6,2.6,0,0,0,1.289.327c.919-.155,1.083.366,1.217,1.048.058.293.125.719.326.826.763.406.8,1.2.875,1.813.24,1.941.652,3.852,1.08,5.745a42.262,42.262,0,0,0,1.056,4.12c.28.835-.22,1.61.2,2.423a2.715,2.715,0,0,1,.3,2.189c-.071.2.089.493.164.736a24.7,24.7,0,0,1,.641,4.822,29.691,29.691,0,0,0,.471,3.268,18.1,18.1,0,0,1,.461,4.505,8.128,8.128,0,0,0,.439,2.441,9.7,9.7,0,0,1,.389,3.915,6.084,6.084,0,0,0,.321,2.636,5.982,5.982,0,0,1,.148,3.313,10.671,10.671,0,0,0-.2,1.885,6.775,6.775,0,0,1-3.637,6.005,1.4,1.4,0,0,0-.863,1.52c.015.168.116.451.214.467.952.161.666.913.488,1.325a8.8,8.8,0,0,0-.462,2.6,3.441,3.441,0,0,0,.018,1.105,7.294,7.294,0,0,1-.029,2.659,8.436,8.436,0,0,0-.054,2.474,44.614,44.614,0,0,1,.185,5.3c.007,1.867.058,3.746.194,5.6a12.811,12.811,0,0,0,1.093,3.379.734.734,0,0,0,.666.251c1.5-.5,3.153-.36,4.583-1.15a1.626,1.626,0,0,1,1.464-.169,2.521,2.521,0,0,0,2.222-.251,4.386,4.386,0,0,1,2.359-.544,1.481,1.481,0,0,0,.882-.131,3.5,3.5,0,0,0,.97-1.14,2.852,2.852,0,0,0,.4-1.625,3.677,3.677,0,0,1,.574-2.339c.415-.937.046-2,.607-2.874a30.253,30.253,0,0,1,1.282-6.511,16.984,16.984,0,0,1,.482-1.957c.24-.568,0-1.337.462-1.946.1-.129-.085-.461-.113-.7s-.132-.567-.019-.711a2.987,2.987,0,0,0,.539-2.513c.828-1.221.46-2.707.9-4.049a24.921,24.921,0,0,0,.65-4.705c.038-.314-.066-.688.07-.94a10.384,10.384,0,0,0,.824-4.276c.108-1.247.445-2.474.663-3.712.065-.373.066-.756.106-1.134a8.49,8.49,0,0,1,.527-2.916,1.866,1.866,0,0,0,.228-.724c.054-1.963.447-3.9.36-5.875a4.42,4.42,0,0,1,.031-1.117,2.513,2.513,0,0,0-.472-2.171,2.325,2.325,0,0,1-.385-2.157,2.269,2.269,0,0,0-.231-1.637,7.074,7.074,0,0,1-.394-2c-.086-.693-.029-1.41-.176-2.086a18.658,18.658,0,0,1-.134-5.76c.1-.762.414-1.5.458-2.2.1-1.55,1.349-1.884,2.253-2.584a2.389,2.389,0,0,1,2.047-.108,3.655,3.655,0,0,1,2.969,2.306,13.205,13.205,0,0,1,1.289,6.026.924.924,0,0,0,.081.55c.686.956.334,2.029.447,3.055.144,1.305-.207,2.615.152,3.9a3.608,3.608,0,0,1-.007.939,31.843,31.843,0,0,0,.133,5.614,21.28,21.28,0,0,1,.567,4.275,3.042,3.042,0,0,0,.439,1.252,5.848,5.848,0,0,1,.372,1.446c.288,1.532.73,3.038,1.159,4.54a1.561,1.561,0,0,0,1.822.615c1.27-.833,2.676-.6,4.043-.778,1.191-.152,2.354-.537,3.534-.8a4.842,4.842,0,0,1,.913-.071c.124,0,.261.091.374.064q1.92-.464,3.833-.956a5.253,5.253,0,0,1,1.271-.35,8.488,8.488,0,0,0,4.558-1.114c.611-.358,1.364-.128,2.03-.231s1.269-.69,1.926-.744a5.5,5.5,0,0,0,2.666-.8,9.78,9.78,0,0,1,2.716-.666,8.1,8.1,0,0,0,2.689-.935,4.376,4.376,0,0,1,1.834-.457c.629-.082,1.3.043,1.708-.627.03-.049.117-.112.156-.1,1.32.414,2.256-.636,3.382-.942a15.253,15.253,0,0,0,4.11-1.413,2.5,2.5,0,0,1,.879-.358,23.877,23.877,0,0,0,6.085-1.972,15.769,15.769,0,0,1,2.905-.765,22,22,0,0,0,3.543-1.334c1.488-.626,2.982-1.237,4.447-1.919,1.15.275,1.9-.547,2.785-1.013a14.72,14.72,0,0,1,1.674-.876,2.853,2.853,0,0,0,2.12-1.982c.08-.32.465-.578.739-.833.418-.389.894-.721,1.286-1.133.268-.282.491-.233.829-.188a12.293,12.293,0,0,0,1.766,0,4.084,4.084,0,0,0,.086-1.645c-.48-1.186.184-2.339-.064-3.515-.087-.411.283-.95.518-1.391s.605-.826.852-1.269c1.041-1.866,2.737-2.258,4.662-2.049a5.273,5.273,0,0,1,2.738,1.581,8.906,8.906,0,0,1,1.358,1.591,1.651,1.651,0,0,1,.262.9c.01.82-.121,1.648-.051,2.461a6.114,6.114,0,0,1-.493,2.589c-.255.727-.631,1.373-.284,2.18.08.185-.077.484-.151.721a7.1,7.1,0,0,0-.313.888c-.121.719.356,1.47-.3,2.189-.446.487-.2,1.282-.544,1.949-.445.87-.179,2.02-.382,2.964a15.07,15.07,0,0,0-.8,2.867,1.811,1.811,0,0,0,.044.515,5.16,5.16,0,0,1-.023,2.809,1.2,1.2,0,0,0,0,.711,1.8,1.8,0,0,1-.1,1.971.865.865,0,0,0-.084.739c.435,1.019-.068,2.009-.03,3.01.028.694.1,1.386.111,2.079a11.071,11.071,0,0,1-.1,1.486,6.087,6.087,0,0,0-.083,2.646.96.96,0,0,1,.025.57,7.742,7.742,0,0,0-.411,3,18.1,18.1,0,0,1-.24,2.969c-.063.484.206.629.516.521,1.152-.4,2.4-.13,3.554-.6.494-.2,1.2.1,1.669-.121a10.8,10.8,0,0,1,2.962-.448c.937-.176,1.858-.433,2.783-.67.348-.09.868-.132.984-.361a2.12,2.12,0,0,0,.206-1.424,10.49,10.49,0,0,1-.25-2.969,18.51,18.51,0,0,0-.481-4.1,10.614,10.614,0,0,1-.279-2.632,10.766,10.766,0,0,0-.166-3.6c-.086-.266.1-.613.125-.925a5.358,5.358,0,0,0,.071-1.527c-.445-2.073.1-4.117.1-6.174,0-.732.428-1.475-.247-2.163-.139-.142.019-.6.071-.9a6.223,6.223,0,0,0,.313-1.845,20.284,20.284,0,0,1,.119-3.9,35.123,35.123,0,0,1,.347-5.414c.043-.234-.111-.5-.132-.75-.049-.634-.054-1.273-.116-1.906-.1-1.023.794-1.862.469-2.948a7.159,7.159,0,0,1,.113-2.989,8.221,8.221,0,0,0-.021-2.6,5.842,5.842,0,0,1,.575-3.506c.122-.3.271-.582.361-.886a2.737,2.737,0,0,1,2.62-2.128,2.543,2.543,0,0,0,1.123-.192c.98-.635,1.991-.125,2.981-.181a.457.457,0,0,1,.337.119c.829,1.015,2.005,1.734,2.529,3.011a7.665,7.665,0,0,1,.462,5.326,7.468,7.468,0,0,0-.3,1.889,5.633,5.633,0,0,1-.23,1.655,7.548,7.548,0,0,0-.207,2.281,10.665,10.665,0,0,1-.6,3.267,32.945,32.945,0,0,0-.647,4.14,7.853,7.853,0,0,0-.008.91,4.642,4.642,0,0,1-.1,1.845,8.9,8.9,0,0,0-.422,1.5,5.688,5.688,0,0,0-.257,3.446c.033.118.069.3.008.372-.667.829-.272,1.792-.382,2.691-.107.868-.409,1.712-.53,2.579a6.154,6.154,0,0,0-.071,2.287c.261,1.027-.28,2.018.053,3.008-.8,1.492-.149,3.2-.752,4.765a7.241,7.241,0,0,0-.209,3.2,43.42,43.42,0,0,0,.691,5.053c.091.433.179.866.268,1.3.4-.1.8-.235,1.2-.3.483-.073,1.071.069,1.44-.161.479-.3.875-.006,1.294-.094a3.149,3.149,0,0,0,1.261-.327,1.4,1.4,0,0,1,1.578-.3.988.988,0,0,0,.557.077,22.929,22.929,0,0,0,3.163-.727,26.954,26.954,0,0,1,5.2-.992c.69-.106,1.36-.345,2.045-.483.954-.19,1.485-1.238,2.667-1.1a15.992,15.992,0,0,0,3.025-.3c.99-.079,1.922-.588,2.951-.381a1.313,1.313,0,0,0,.568-.044q4.033-1.056,8.064-2.127c.479-.758,1.313-.131,1.912-.5a21.672,21.672,0,0,1,2.02-1.05,20.7,20.7,0,0,1,1.927-.813,11.342,11.342,0,0,1,3.39-1.074,1.137,1.137,0,0,0,.55-.153,20.285,20.285,0,0,1,5.662-2.1c.269-.074.482-.357.716-.55a6.91,6.91,0,0,1,2.689-1.4c.719-.186,1.55-.107,1.938-.967a.374.374,0,0,1,.327-.154c.976.3,1.44-.511,2.146-.849,1.018-.488,1.863-1.524,3.221-1.281a2.426,2.426,0,0,0,1.272-.383,2.561,2.561,0,0,1,2.343.031c.633.319,1.371.266,1.941.543.5.242.769.961,1.131,1.476a3.106,3.106,0,0,1,.6,2.948,1.9,1.9,0,0,0-.125.748,4.036,4.036,0,0,1-1.323,3c-.2.231-.413.535-.673.6-.964.256-1.7.978-2.784,1.087-1.015.1-1.824,1.074-2.961,1.168-.224.019-.479.573-.588.921a29.058,29.058,0,0,0-1.691,9.011c.024,2.563.028,5.126-.006,7.688-.016,1.276-.122,2.552-.209,3.826a1.578,1.578,0,0,0,.623,1.679c.39.262.541.854.9,1.187a1.482,1.482,0,0,1,.453,1.485,6.652,6.652,0,0,0,.4,2.761,5.915,5.915,0,0,1,.254,2.969,7.253,7.253,0,0,0,.543,3.37c.074.236.3.453.3.678a22.474,22.474,0,0,0,.629,5.034,2.021,2.021,0,0,1-.045.752,6.584,6.584,0,0,0,.092,2.8,12.486,12.486,0,0,1,.393,3.535,3.35,3.35,0,0,0,.025,1.125,5.807,5.807,0,0,1,.461,2.167c-.042.733-.132,1.465-.136,2.2a7.168,7.168,0,0,0,.439,3.379,2.6,2.6,0,0,1,.1,1.083,14.038,14.038,0,0,1,.244,3.876.558.558,0,0,0,.051.373c.84,1.3.244,2.97,1.124,4.252a15.31,15.31,0,0,0,.336,3.549,18.355,18.355,0,0,0,.511,1.951,8.442,8.442,0,0,0,.463,1.766,3.972,3.972,0,0,1,.45,2.4,1.612,1.612,0,0,0,.461,1.589,3.917,3.917,0,0,1,.678,1.336c.518,1.087,1.229,2.089,1.071,3.384.937.963.623,2.618,1.883,3.4a21.215,21.215,0,0,0,2.57,3.92.713.713,0,0,1,.1.162,12.121,12.121,0,0,0,3.633,5.225,10.722,10.722,0,0,1,1.209,1.889,4.95,4.95,0,0,0,1.015,1.113,1.6,1.6,0,0,1,.57,2.164,8.2,8.2,0,0,1-1.309,2.416,2.427,2.427,0,0,1-2.855.72,11.482,11.482,0,0,1-2.637-1.055,13.823,13.823,0,0,1-2.082-2.156c-.293-.318-.5-.783-.86-.961a3.232,3.232,0,0,1-2-1.916.539.539,0,0,0-.473-.242,1.453,1.453,0,0,0-.554.416.584.584,0,0,0-.152.348c-.109,1.967-.759,3.9-.343,5.9a7.67,7.67,0,0,1,.041,1.906c-.051,1.019-.211,2.034-.22,3.052-.035,3.713-.023,7.427-.045,11.14,0,.119-.172.237-.264.355-.059-.109-.167-.217-.168-.326q-.034-2.4-.042-4.8c-.012-4.226.013-8.452-.045-12.677a17,17,0,0,0-.45-3.22c-.3-1.439-.679-2.863-1.065-4.282a7.334,7.334,0,0,0-.554-1.184c-.646.263-.35.848-.454,1.3-.574,2.529-.273,5.1-.34,7.649-.092,3.521-.076,7.044-.109,10.566a6.067,6.067,0,0,1-.037.766c-.014.1-.12.189-.186.284a1.237,1.237,0,0,1-.175-.325,2.8,2.8,0,0,1-.043-.573q.025-4.8.056-9.607a37.62,37.62,0,0,0-1.247-11.4c-.094-.306-.186-.613-.308-.907-.03-.073-.172-.1-.263-.147a.59.59,0,0,0-.068.179c-.017.384-.032.768-.034,1.152-.006,1.217,0,2.435-.014,3.652a2.131,2.131,0,0,1-.15.533c-.09-.191-.253-.38-.256-.572-.025-1.6-.006-3.2-.035-4.8a8.442,8.442,0,0,0-.187-1.707,1.67,1.67,0,0,0-1.166-1.4,1.325,1.325,0,0,1-.522-.219c-.271-.24-.59-.793-.73-.746-.55.184-.281.75-.294,1.153-.081,2.43-.129,4.861-.187,7.293a1.577,1.577,0,0,1,0,.192c-.025.187-.058.373-.088.559a2.914,2.914,0,0,1-.106-.519c-.038-1.281-.072-2.561-.09-3.841-.015-1.025,0-2.05-.008-3.075a1.272,1.272,0,0,0-.473-1.175,1.1,1.1,0,0,1-.286-.842,2.266,2.266,0,0,0-.489-1.607c-.185-.238-.371-.475-.556-.713a2.887,2.887,0,0,0-.5.724,31.386,31.386,0,0,0-1.147,9.673c.035,1.6,0,3.2,0,4.8,0,.7-.042,1.409-.03,2.113.077,4.482-.1,8.958-.258,13.436-.049,1.4.082,2.8.1,4.208,0,.15-.22.444-.266.43-.212-.065-.565-.208-.57-.334-.051-1.4-.072-2.811-.047-4.215.015-.892.163-1.782.179-2.674.059-3.458.08-6.916.134-10.374a80.354,80.354,0,0,0-.54-10.916,53.729,53.729,0,0,0-1.279-5.993,23.826,23.826,0,0,1-1-5.264,1.812,1.812,0,0,0-.6-1.363c-.366-.33-.845-.755-1.267-.747-.586.011-.576.729-.712,1.2a33.2,33.2,0,0,0-1.163,10.06c.029,1.6.007,3.2,0,4.8,0,1.922.03,3.845-.019,5.766-.087,3.387-.232,6.772-.337,10.158-.022.7.026,1.406.039,2.109.011.64.035,1.28.012,1.918,0,.147-.18.288-.276.432a4.386,4.386,0,0,1-.508-.477.628.628,0,0,1-.052-.373q.087-2.875.183-5.75c.015-.448.062-.895.063-1.342,0-4.8.043-9.608-.015-14.412-.026-2.234-.21-4.47-.389-6.7a16.181,16.181,0,0,0-.5-2.437c-.207-.862-.455-1.716-.684-2.573-.434.865-.125,1.79-.221,2.683a5.4,5.4,0,0,1-.046.572c-.021.1-.129.173-.2.258a1.055,1.055,0,0,1-.168-.326c-.033-.318-.038-.639-.04-.959,0-.9.037-1.8-.009-2.691-.061-1.208-.195-2.413-.276-3.62-.064-.958-.07-1.92-.155-2.876a12.081,12.081,0,0,0-.322-1.667.35.35,0,0,0-.288-.172.359.359,0,0,0-.259.211,18.875,18.875,0,0,0-.54,4.941c-.007,2.947.035,5.9-.013,8.842-.053,3.261-.188,6.521-.278,9.781-.018.637.01,1.275.006,1.912,0,.511-.015,1.022-.05,1.532-.007.1-.139.2-.213.3-.085-.08-.236-.155-.244-.242-.044-.573-.083-1.148-.078-1.722.032-5.06.117-10.12.09-15.179a49.623,49.623,0,0,0-.414-6.881,61.169,61.169,0,0,0-1.568-6.718,6.658,6.658,0,0,0-2.441-2.882,14.257,14.257,0,0,1-1.786-1.924c-.422-.476-.8-.992-1.248-1.443-.23-.233-.517-.083-.553.213-.147,1.2-.241,2.41-.381,3.613a4.808,4.808,0,0,1-.245.821,2.71,2.71,0,0,1-.163-.725,14.173,14.173,0,0,0-.529-4.176,4.3,4.3,0,0,0-1.3-2.281,43.832,43.832,0,0,1-3.1-3.109,13.313,13.313,0,0,0-2.338-2.505c-.212-.14-.39-.334-.607-.469-.554-.344-.992-.129-1.069.518-.022.19-.012.384-.028.575-.02.252-.052.5-.078.754-.032-.22-.075-.438-.09-.659-.019-.255.011-.515-.021-.768a4.015,4.015,0,0,0-.885-2.019,11.138,11.138,0,0,0-2.359-2.146c-1.117-.836-2.4-1.452-3.146-2.723-.083-.143-.314-.206-.483-.29-.425-.209-.775-.064-.857.387s-.1.887-.155,1.33c-.014.125-.038.25-.058.375-.038-.132-.084-.263-.113-.4-.187-.872-.363-1.746-.562-2.615a.328.328,0,0,0-.255-.193c-.1.01-.268.12-.281.206-.175,1.135-.322,2.274-.492,3.409a2.272,2.272,0,0,1-.2.506c-.073-.152-.213-.308-.206-.456a13.543,13.543,0,0,0-.788-4.516,2.53,2.53,0,0,0-.35-.877,14.472,14.472,0,0,0-1.159-1.169c-.516.424-.4,1.03-.418,1.575-.054,1.92-.069,3.843-.109,5.764a5.283,5.283,0,0,1-.1.687c-.028-.252-.069-.5-.08-.757-.065-1.6-.083-3.2-.2-4.8a10.087,10.087,0,0,0-1.116-4.229,2.669,2.669,0,0,0-.6-.711.47.47,0,0,0-.436.1c-.084.234-.037.511-.106.753a3.416,3.416,0,0,1-.326.633,1.9,1.9,0,0,1-.343-.54,11.6,11.6,0,0,0-.206-1.321,2.364,2.364,0,0,0-.709-1.085,17.278,17.278,0,0,0-1.949-1.105,3.333,3.333,0,0,0-.111,2.213c.151,1.126.355,2.245.542,3.367.02.125.117.26.09.367-.57,2.173.772,4.223.4,6.38.568,1.783.365,3.667.737,5.488a14.885,14.885,0,0,0,.89,4.062,1.235,1.235,0,0,1,.084.928,1.232,1.232,0,0,0,.227,1.406c.109.139.012.454-.019.685-.015.122-.162.27-.125.348a5.522,5.522,0,0,1,.381,2.634,14.355,14.355,0,0,0,.376,2.555,8.88,8.88,0,0,1,.146,1.5,7.682,7.682,0,0,0,.543,2.78,14.133,14.133,0,0,1,.455,2.756c.026.184-.123.457-.037.557.833.967.5,2.176.731,3.263a12.2,12.2,0,0,0,.587,1.6c.251.675-.448,1.408.046,2.026a4.389,4.389,0,0,1,.6,1.962c.367,1.531.692,3.073,1,4.617a2.522,2.522,0,0,0,1.586,2,1.464,1.464,0,0,1,.968,1.979c-.124.57-.387,1.1.117,1.611.042.042.087.132.069.173a13.951,13.951,0,0,1-1.177,2.57,6.772,6.772,0,0,1-1.967,1.781,1.27,1.27,0,0,0-.771,1.172,1.888,1.888,0,0,1-.017.383c-.115.507.251,1.1-.283,1.533-.061-.5-.123-.992-.182-1.488a1.093,1.093,0,0,0-1.2-.929.507.507,0,0,0-.366.324c-.057.764-.067,1.533-.09,2.3-.007.192,0,.384-.011.576a1.4,1.4,0,0,1-.034.187.61.61,0,0,1-.087-.191c-.014-.192-.01-.384-.012-.576,0-.7.022-1.411-.026-2.113a2.509,2.509,0,0,0-.316-.869.4.4,0,0,0-.314-.182c-.078,0-.2.16-.212.259-.047.38-.051.766-.087,1.147a1.668,1.668,0,0,1-.119.352,1.428,1.428,0,0,1-.205-.411c-.042-.316-.025-.64-.058-.958a1.121,1.121,0,0,0-.157-.331,2.129,2.129,0,0,0-.08.35c-.118,1.78-.308,3.559-.332,5.34-.065,4.866-.06,9.734-.083,14.6,0,.064.014.154-.022.187a1.068,1.068,0,0,1-.384.277c-.072.021-.223-.109-.286-.2a.649.649,0,0,1-.1-.361q.065-2.875.147-5.749c.015-.51.083-1.019.084-1.528.01-2.307.039-4.614-.007-6.92s-.174-4.59-.274-6.885a1.235,1.235,0,0,0-.125-.35c-.081.118-.227.234-.231.355-.123,3.386-.23,6.772-.344,10.158-.008.255-.025.511-.053.764-.006.053-.077.1-.118.149-.069-.072-.2-.143-.2-.216-.018-.831-.018-1.663-.018-2.495,0-1.986-.028-3.972.01-5.958.025-1.339.165-2.676.21-4.015a3.237,3.237,0,0,0-.223-1.107.6.6,0,0,0-.42-.323c-.1-.014-.33.194-.344.321a13.814,13.814,0,0,0-.111,1.722c0,1.472.048,2.943.045,4.414a3.13,3.13,0,0,1-.23.819,4.837,4.837,0,0,1-.2-.9c-.03-.831,0-1.664-.022-2.495-.009-.313.007-.729-.174-.916-.684-.7-.468-1.551-.5-2.359a25.847,25.847,0,0,0-.274-5.54c-.061-.245-.029-.593-.183-.723-.863-.724-.712-1.7-.717-2.631a3.6,3.6,0,0,0-.374-1.852,2.635,2.635,0,0,1-.34-1.264,32.633,32.633,0,0,1,.1-4.018,18.142,18.142,0,0,0-.069-3.776,10.925,10.925,0,0,0-.426-2.912,11.635,11.635,0,0,1-.234-3.044c-.062-1.022-.092-2.049-.215-3.064a10.06,10.06,0,0,0-.459-1.858,25.2,25.2,0,0,1-1.176-8.138q.037-3.356-.039-6.713a14.112,14.112,0,0,0-.321-2.06,10.686,10.686,0,0,1-.328-1.869,36.756,36.756,0,0,0-.287-5.7,19.1,19.1,0,0,1-.13-4.549c.156-1.58-.524-3-.574-4.518-.006-.241-.327-.555-.58-.691a26.01,26.01,0,0,1-3.59-2.75,7.5,7.5,0,0,0-1.073-.805,17.156,17.156,0,0,1-2.217-1.068c-.6-.439-1.042-1.093-1.787-1.358-.284-.1-.582-.177-.857-.3a3.576,3.576,0,0,1-.985-.529,9.135,9.135,0,0,0-3.785-2.368,5.162,5.162,0,0,1-1.668-.909,3.315,3.315,0,0,0-3.524-.77,1.254,1.254,0,0,1-1.389-.264c-.712-.628-1.435-1.244-2.161-1.858a10.814,10.814,0,0,0-1.464-1.182,1.571,1.571,0,0,1-.889-1.841,5,5,0,0,1,1.092-2.944,2.314,2.314,0,0,0,.446-1.607,10.275,10.275,0,0,0-.523-2.794,5.99,5.99,0,0,1-.317-1.649c-.084-1.127-.3-2.245-.458-3.366a3.506,3.506,0,0,1-.084-.548,16.85,16.85,0,0,1,.072-1.693,13.028,13.028,0,0,0-.418-2.594,18.822,18.822,0,0,1,.227-2.649c.006-.1-.226-.231-.369-.3-.03-.016-.225.152-.23.242a22.8,22.8,0,0,0-.3,4.574,22.167,22.167,0,0,1-.007,5.737,35.875,35.875,0,0,0-.088,3.838c-.044,3.843-.022,7.688-.156,11.527a37.637,37.637,0,0,0,.034,4.758,3.859,3.859,0,0,1-.056.938c-.013.08-.18.179-.284.188s-.279-.068-.3-.145a3.159,3.159,0,0,1-.19-.915c.007-1.857.048-3.714.063-5.571.023-2.819.019-5.638.057-8.456.012-.957.137-1.911.171-2.869.037-1.023.071-2.05.031-3.072-.087-2.3-.24-4.6-.33-6.9a33.344,33.344,0,0,0-1.344-7.33,1.165,1.165,0,0,0-.21-.31c-.1.11-.252.2-.292.331a21.815,21.815,0,0,0-1.065,5.248c-.061,1.018-.246,2.029-.319,3.047a9.21,9.21,0,0,0,.033,1.917,18.661,18.661,0,0,1-.012,5.729,8.58,8.58,0,0,0-.05,1.342q-.07,6.917-.135,13.834a5.246,5.246,0,0,1-.057,1.148,4.947,4.947,0,0,0,0,2.654,1.792,1.792,0,0,1,.048.762c-.08.535.309,1.17-.276,1.592-.3.218-.557-.4-.549-1.584.033-5-.107-10,.191-14.984.185-3.092-.1-6.133-.174-9.2-.033-1.4-.163-2.8-.25-4.2a46.69,46.69,0,0,0-1.6-7.489c-.029-.129-.173-.232-.264-.346a1.312,1.312,0,0,0-.213.311,16.509,16.509,0,0,0-.676,4.918c-.028,1.665.014,3.332-.013,5-.035,2.174-.125,4.347-.165,6.521-.047,2.622-.063,5.244-.1,7.866a6.271,6.271,0,0,1-.122.934c-.009.052-.111.139-.125.131-.094-.055-.25-.129-.252-.2-.031-1.406-.056-2.813-.06-4.219-.01-4.482-.038-8.964-.005-13.446a28.572,28.572,0,0,0-1.078-7.567,8.727,8.727,0,0,0-.456-1.461c-.156-.336-.44-.449-.647.035-.048.11-.225.164-.342.243-.4-.622-.9-.309-1.345-.1a2.372,2.372,0,0,0-1.305,1.582,31.9,31.9,0,0,0-.744,3.368,22.437,22.437,0,0,0-.154,3.066c-.018,3.713-.009,7.427-.017,11.14a4.637,4.637,0,0,1-.1.747c-.008.047-.076.083-.117.123-.043-.048-.118-.092-.124-.144-.039-.378-.09-.758-.092-1.137-.015-3.267-.01-6.535-.035-9.8a26.559,26.559,0,0,0-1.157-6.782.706.706,0,0,0-.544-.379,5.336,5.336,0,0,0-2.538.719,1.5,1.5,0,0,0-.559.956,20.8,20.8,0,0,0-.468,3.214c-.074,1.983-.02,3.971-.023,5.958,0,.448-.009.9-.04,1.343-.007.108-.117.208-.182.312-.065-.1-.183-.207-.187-.314-.031-.7-.018-1.409-.054-2.111-.1-1.85-.168-3.7-.34-5.546a15.971,15.971,0,0,0-.579-2.575.554.554,0,0,0-.431-.3.544.544,0,0,0-.422.308c-.274,1.307-.528,2.618-.749,3.935-.074.438-.025.895-.055,1.341a1.015,1.015,0,0,1-.163.331c-.076-.142-.212-.281-.218-.426a11.746,11.746,0,0,0-.383-3.611c-.267-.732-.38-.862-1.073-.739a8.265,8.265,0,0,0-1.264.38c-.237.083-.473.336-.681.308-1.423-.194-2.457.893-3.751,1.092a1.252,1.252,0,0,0-.953.85c-.073.165-.127.338-.191.507-.058-.179-.116-.358-.173-.537-.117-.367-.359-.527-.725-.383-1.008.4-2.022.784-3,1.24a1.373,1.373,0,0,0-.534.73,11.949,11.949,0,0,0-.761,4.323c-.018,1.281.017,2.563-.01,3.844a40.03,40.03,0,0,1-.256,6.513,18.692,18.692,0,0,0-.04,2.686,2.446,2.446,0,0,0,.8,1.867,32.681,32.681,0,0,1,3.316,3.715c.606.863,1.112,1.812,1.76,2.668.23.305.324.679.791.71.108.007.286.113.3.2a2.962,2.962,0,0,0,1.348,1.765c.181,1.448,1.6,2.056,2.2,3.238a11.4,11.4,0,0,0,2.488,3.13c.436.4,1.125.869.985,1.741-.024.155.518.344.67.594a21.982,21.982,0,0,0,3.04,4.209,1.665,1.665,0,0,1,.34.675c.654,2.1,2.288,3.622,3.3,5.514a1.949,1.949,0,0,0,.643.7,3.93,3.93,0,0,1,1.359,2.027,5.388,5.388,0,0,0,1.6,2.539,2.12,2.12,0,0,1,.684.917,28.89,28.89,0,0,0,3.671,5.977c.686,1,1.708,1.864,1.916,3.2a1.624,1.624,0,0,0,.708.865,1.5,1.5,0,0,1,.778,1.222,2.084,2.084,0,0,0,.466,1.019c.327.437.847.654.916,1.37.045.472.783.808.688,1.491-.016.118.2.278.33.4a7.715,7.715,0,0,1,1.425,2.4c.468,1.042,1.063,2.028,1.62,3.029a.384.384,0,0,0,.332.107c.095-.019.241-.151.239-.23-.017-.5.109-1.14-.147-1.477a2.344,2.344,0,0,1-.383-1.94,2.679,2.679,0,0,0-.333-1.847c-.237-.376-.059-1.025-.31-1.379-.371-.524-.129-.966-.109-1.455a4.992,4.992,0,0,0-.15-.92c-.149-.979-.613-1.875-.231-2.976.212-.611-.191-1.458-.383-2.181a20.847,20.847,0,0,1-.276-5.109,50.785,50.785,0,0,0-.046-6.437,27.375,27.375,0,0,1,.158-4.74,2.476,2.476,0,0,0-.1-1.089,1.338,1.338,0,0,1-.1-1.251c.094-.2.1-.63-.026-.725-.929-.7-.427-1.605-.407-2.436.029-1.208.114-2.415.1-3.622a2.612,2.612,0,0,1,.995-2.353c.376-.283.515-.962.9-1.128.407-.174.984.077,1.489.1a19.814,19.814,0,0,1,2.46.066c.707.118,1.235.735,2.035.823.433.047.808.585,1.391.377.088-.031.3.147.384.273.239.343.614.708.616,1.066a1.233,1.233,0,0,0,.415.966.888.888,0,0,1,.092.72,7.569,7.569,0,0,0,.045,3.316,1.435,1.435,0,0,1,.023.572,15.036,15.036,0,0,0,0,4.42,8.843,8.843,0,0,1-.312,1.688c-.078.5-.333,1.15-.119,1.492.8,1.275-.067,2.6.266,3.858a.525.525,0,0,1-.035.373c-.786,1.257-.218,2.614-.292,3.921-.039.683.031,1.37.014,2.055a8.6,8.6,0,0,1-.156,2.166,3.437,3.437,0,0,0,.2,2.233c.071.2-.088.479-.108.725a12.212,12.212,0,0,0,.139,4.932,2.561,2.561,0,0,1-.023,1.3,6.353,6.353,0,0,0,.138,3.4,9.608,9.608,0,0,1,.175,2,18.266,18.266,0,0,1,.172,2.086,4.94,4.94,0,0,0,.368,2.432c.347.707-.187,1.673.644,2.246.076.826.1,1.659.24,2.474a9.487,9.487,0,0,0,1.076,3.762c.471.742.554,1.772,1.1,2.56.083.12.128.411.06.469-.82.7.064,1.575-.285,2.344a3.034,3.034,0,0,0,.144,2.249,1.972,1.972,0,0,1-.348,2.09,10.835,10.835,0,0,1-1.265,1.658,3.864,3.864,0,0,0-1.361,2.239,39.856,39.856,0,0,0-1.648,8.062,42.046,42.046,0,0,0-.05,6.12c.081.944-.125,1.91-.139,2.867-.057,4.292-.079,8.584-.142,12.875-.014.954-.18,1.905-.2,2.86-.021.826.062,1.655.095,2.482.022.572.061,1.145.04,1.715,0,.115-.249.31-.377.305s-.285-.2-.343-.349a1.463,1.463,0,0,1-.064-.568q.027-2.882.065-5.763c.008-.64.048-1.28.049-1.92,0-4.165.044-8.33-.012-12.494a47.223,47.223,0,0,0-.383-7.654c-.334-1.885-.782-3.75-1.186-5.622a1.421,1.421,0,0,0-.17-.331,1.654,1.654,0,0,0-.2.447c-.039.316-.013.639-.048.956-.009.079-.147.143-.227.213a.912.912,0,0,1-.1-.161.423.423,0,0,1-.029-.188c.33-2.507-.292-4.97-.363-7.459a3.7,3.7,0,0,0-.516-1.6c-.756-1.364-1.582-2.689-2.39-4.024a.416.416,0,0,0-.29-.187c-.074,0-.206.139-.216.227a8.966,8.966,0,0,0-.039.959c0,1.41.022,2.82-.009,4.229a48.939,48.939,0,0,1-.248,6.9,22.584,22.584,0,0,0-.007,3.645c0,.107-.1.215-.154.323-.1-.128-.3-.258-.3-.384.043-2.687.079-5.375.179-8.06a19.625,19.625,0,0,0-.121-4.967,6.439,6.439,0,0,1-.083-1.529,17.231,17.231,0,0,0-.928-5.445c-.2-.683-1.116-.617-1.046-1.463a3.66,3.66,0,0,0-.457-1.632c-.116-.266-.454-.429-.668-.66-.331-.353-.438.03-.481.187a10.906,10.906,0,0,0-.388,1.866c-.233,2.789-.85,5.549-.357,8.39a19.21,19.21,0,0,1,.025,3.837c-.037,1.21-.2,2.417-.22,3.627-.065,4.483-.092,8.966-.134,13.449a3.053,3.053,0,0,1-.014.576,13.549,13.549,0,0,0-.024,4.954c.089.555.375,1.329-.372,1.717-.391.2-.718-.47-.688-1.719.069-2.812.258-5.622.273-8.434.032-6.212.094-12.427-.077-18.635a27.02,27.02,0,0,0-1.054-7.959c-.142-.423-.23-.864-.362-1.291a1.152,1.152,0,0,0-.209-.291,1.69,1.69,0,0,0-.094.346c-.028.512-.054,1.024-.057,1.536-.007,1.41.019,2.82-.007,4.229q-.1,5.462-.247,10.923c0,.12-.2.236-.3.354-.1-.144-.274-.287-.275-.432-.017-1.537,0-3.074,0-4.611,0-4.354.023-8.708-.015-13.062-.012-1.4-.145-2.805-.3-4.2a28.381,28.381,0,0,0-.519-2.825c-.05-.236-.254-.65-.327-.638-.446.077-.183.467-.2.7-.054.956-.055,1.916-.062,2.874a.925.925,0,0,0,.475.93.8.8,0,0,1,.032,1.193,2.189,2.189,0,0,0-.462,1.6q-.051,2.785-.12,5.57c-.089,3.644-.192,7.289-.271,10.933-.027,1.277.007,2.555-.014,3.832,0,.119-.24.351-.3.331-.157-.053-.39-.215-.393-.339q-.044-1.815-.01-3.632c.01-.508.136-1.015.142-1.524.052-4.419.162-8.839.105-13.256a84.415,84.415,0,0,0-.537-8.611,52.15,52.15,0,0,0-1.269-5.609c-.215-.934-.386-1.879-.631-2.8a14.671,14.671,0,0,0-.773-2.342,13.062,13.062,0,0,0-1.122-1.721c-.558.566-.149,1.283-.3,1.914-.044.185-.052.379-.093.565-.011.055-.079.1-.12.147a.513.513,0,0,1-.112-.141,1.376,1.376,0,0,1-.085-.369c-.02-.448-.032-.9-.035-1.344a3.563,3.563,0,0,0-.794-2.867c-.25-.241-.3-.679-.477-1.012-.024-.048-.253-.057-.315,0a.556.556,0,0,0-.132.344c-.053.637-.122,1.275-.13,1.914-.019,1.473.017,2.948-.012,4.421-.043,2.3,0,4.594-.2,6.9-.228,2.6-.065,5.241-.076,7.864,0,.383-.012.766-.052,1.146-.011.1-.146.2-.224.293-.08-.095-.221-.184-.229-.285-.041-.509-.065-1.02-.06-1.53.028-2.625.1-5.25.093-7.875-.008-3.33-.026-6.661-.135-9.988a28.906,28.906,0,0,0-1.428-7.317,5.958,5.958,0,0,0-.946-1.828c-.782-1.045-1.136-2.41-2.327-3.152a3.461,3.461,0,0,1-.283-.218,2.261,2.261,0,0,0-.137.476c-.056.766-.107,1.532-.134,2.3-.02.64,0,1.281,0,1.922.012,5.184.036,10.369-.293,15.547-.061.954,0,1.915-.033,2.871,0,.111-.2.217-.3.325-.064-.106-.183-.211-.184-.318-.013-1.151,0-2.3-.008-3.453-.021-5.764.03-11.529-.1-17.291a24.532,24.532,0,0,0-1.531-7.105,2.832,2.832,0,0,0-1.586-2.051,1.065,1.065,0,0,1-.511-.717,2.15,2.15,0,0,0-.6-1.367c-.14-.118-.3-.211-.452-.316a3.2,3.2,0,0,0-.167.341,6.4,6.4,0,0,0-.229,2.846,13.2,13.2,0,0,1,.136,1.716c-.048,1.725-.185,3.448-.209,5.172-.042,2.75-.018,5.5-.039,8.252,0,.166-.149.33-.229.494-.087-.161-.25-.322-.249-.483.007-1.919.071-3.837.061-5.755-.02-3.779,0-7.561-.159-11.334a23.835,23.835,0,0,0-.913-4.292c-.055-.233-.217-.587-.386-.623-1.136-.242-1.146-1.394-1.693-2.089-.5-.628-.578-1.583-1.578-1.779a.4.4,0,0,1-.237-.277c-.169-1.427-1.547-1.968-2.219-3.029-.313-.493-.492-.416-.841.227-.056.1-.126.2-.19.295-.069-.071-.192-.136-.2-.212a12.3,12.3,0,0,0-.133-1.527,4.856,4.856,0,0,0-.55-1.175.408.408,0,0,0-.328-.157c-.078.006-.186.155-.205.255-.092.486-.156.977-.231,1.466-.875.249.15.867-.237,1.259a.771.771,0,0,0,.012.711,5.168,5.168,0,0,1,.328,2.015,26.421,26.421,0,0,0,.606,3.162,15.179,15.179,0,0,1,.172,3.735,2.968,2.968,0,0,0,.085.55c.012.052.105.135.133.125.1-.039.278-.1.285-.169.053-.635.076-1.272.114-1.908.011-.188.049-.375.076-.562a3.8,3.8,0,0,1,.1.637,5.326,5.326,0,0,1-.5,3.163,2.72,2.72,0,0,0-.19.92c-.173.843.841,1.527.392,2.353-.43.794.021,1.508.05,2.245a14.513,14.513,0,0,1,.042,3.719,5.564,5.564,0,0,0,.062,1.524c.039.506.112,1.009.146,1.515.1,1.439-.2,2.9.355,4.317a2.187,2.187,0,0,1,.053,1.319c-.529,1.826-.112,3.681-.245,5.515a5.554,5.554,0,0,0,.374,1.83c.118.463-.333,1.045-.387,1.588a3.684,3.684,0,0,0,.168,1.518,17.965,17.965,0,0,1,.45,3.145,4.815,4.815,0,0,1-.034,1.11,6.336,6.336,0,0,0-.123,1.116,6.193,6.193,0,0,0,.471,2.019c.227.5-.193,1.251-.07,1.838a14.492,14.492,0,0,1,.683,3.143,4.137,4.137,0,0,1,.068.569c-.339,2,.724,3.562,1.618,5.166.467.838,1.025,1.624,1.549,2.43a3.346,3.346,0,0,1,.52,2.554c-.2,1.116-.26,2.261-.367,3.394-.034.376-.182.469-.579.531a1.375,1.375,0,0,0-1.209,1.481c-.042,2.24-.1,4.479-.131,6.719-.025,2.05-.013,4.1-.028,6.15a1.047,1.047,0,0,1-.138.342c-.083-.132-.229-.26-.237-.4-.033-.51-.025-1.024-.026-1.536,0-2.755.019-5.511-.024-8.265a12.727,12.727,0,0,0-.338-2.454c-.055-.256-.354-.488-.587-.669s-.519-.107-.53.223c-.033,1.024,0,2.05-.033,3.074-.125,3.388-.281,6.775-.4,10.162-.025.7.067,1.4.082,2.1,0,.1-.142.2-.217.294-.075-.1-.2-.189-.219-.3a4.182,4.182,0,0,1-.056-.762q.038-6.819.084-13.638c0-.256.006-.513-.013-.768-.023-.311-.017-.658-.436-.731-.305-.053-.588.372-.511.852.414,2.554,0,5.1-.046,7.651,0,.256-.045.511-.048.767-.045,4.1-.069,8.2-.146,12.3-.013.663.41,1.376-.146,2-.989-.443-.584-1.351-.531-2,.338-4.217.152-8.44.257-12.659a79.066,79.066,0,0,0-.313-9.011,3.767,3.767,0,0,0-.264-.907,1.258,1.258,0,0,0-.225-.3,1.347,1.347,0,0,0-.141.4c-.052,3.458-.083,6.917-.153,10.375-.018.953-.185,1.9-.216,2.857-.023.76.052,1.523.089,2.285.019.379.067.757.065,1.135,0,.082-.152.216-.249.23a.4.4,0,0,1-.293-.164.62.62,0,0,1-.113-.356,29.156,29.156,0,0,1,.165-5.552,7.56,7.56,0,0,0,.1-1.529c0-2.819.012-5.639-.051-8.457a13.809,13.809,0,0,0-.393-3.606,27.966,27.966,0,0,0-1.725-3.815c-.187-.394-.429-.761-.614-1.155-.258-.55-.47-.532-.678.023-.113-.077-.311-.141-.325-.234-.15-.939-.258-1.885-.4-2.825a2.077,2.077,0,0,0-.266-.91,14.29,14.29,0,0,1-1.805-4.317,5.584,5.584,0,0,0-1.21-2.353,3.3,3.3,0,0,1-.519-1.377c-.069-.235.05-.579-.08-.735-.892-1.064-.981-2.421-1.412-3.651-.036-.1-.172-.166-.263-.247-.048.1-.1.2-.143.306a.612.612,0,0,0-.02.19c0,.192-.008.385-.009.577-.02,5.182.094,10.366-.308,15.541-.064.826-.009,1.662-.025,2.493,0,.111-.1.22-.161.329-.086-.129-.249-.258-.248-.386.038-3.521.048-7.043.17-10.562a19,19,0,0,0-.073-4.015,12.636,12.636,0,0,1-.1-2.3,19.474,19.474,0,0,0-.662-4.925,37.907,37.907,0,0,1-1.14-4.583c-.079-.646-.86-.827-1-1.562-.119-.611-.726-1.123-.512-1.885.035-.129-.148-.344-.272-.483-.065-.072-.22-.076-.336-.085a.171.171,0,0,0-.131.1c-.029.446-.061.893-.065,1.34q-.067,7.591-.13,15.182a5.394,5.394,0,0,1-.084,1.336,3.488,3.488,0,0,0,0,2.071,2.989,2.989,0,0,1,.06,1.142c-.02.225-.154.611-.273.625-.458.056-.419-.357-.445-.655-.075-.856.2-1.78-.648-2.465-.18-.146-.157-.605-.147-.918a50.907,50.907,0,0,1,.218-6.325,22.1,22.1,0,0,0,.078-3.453,62.452,62.452,0,0,0-.081-6.892c-.291-2.6.107-5.26-.7-7.807a3.413,3.413,0,0,0-.142-.553,2.037,2.037,0,0,0-.37-.4,1.148,1.148,0,0,0-.133.333c-.1,1.85-.227,3.7-.278,5.551-.046,1.665,0,3.332-.012,5q-.021,3.936-.078,7.871c0,.111-.195.253-.329.312-.059.026-.216-.1-.287-.2a.552.552,0,0,1-.131-.348c.161-1.424-.433-2.749-.526-4.131-.1-1.4-.022-2.817-.011-4.226.029-3.458.081-6.916.092-10.374,0-1.533-.028-3.068-.114-4.6-.064-1.147-.207-2.292-.38-3.428a2.7,2.7,0,0,0-.5-1c-.345-.511-.768-.971-1.083-1.5a1.912,1.912,0,0,1-.148-.89c-.011-.375.071-.756.035-1.126-.013-.122-.266-.294-.419-.3a.493.493,0,0,0-.391.287,7.244,7.244,0,0,0-.125,1.911c.242,1.617-.6,3.113-.44,4.709.009.095-.073.2-.114.3a1.27,1.27,0,0,1-.124-.349c-.018-.384,0-.769-.018-1.152a2.766,2.766,0,0,0-.132-.526,1.264,1.264,0,0,0-.174.432c.017,1.215.055,2.43.085,3.644a4.7,4.7,0,0,1,0,.538c0,.048-.094.135-.129.127-.109-.025-.271-.059-.3-.137a1.31,1.31,0,0,1-.107-.557,44.9,44.9,0,0,1,.21-5.358,29.091,29.091,0,0,0,.035-4.8c0-.3-.208-.377-.521-.364a29.147,29.147,0,0,0-5.416,1.093,1.218,1.218,0,0,0-.658.839,12.489,12.489,0,0,0-.208,2.288c-.025,2.178-.006,4.357-.011,6.535,0,.383-.028.766-.054,1.148,0,.053-.074.1-.112.152-.075-.067-.207-.13-.213-.2-.036-.446-.057-.894-.058-1.342-.007-1.665.073-3.335-.028-4.994a25.311,25.311,0,0,0-.6-3.569.516.516,0,0,0-.876-.337,3.006,3.006,0,0,1-1.769.543,2.127,2.127,0,0,0-2.013,1.746,21,21,0,0,0-.818,5.871c.012,3.332,0,6.664,0,10,0,.512-.019,1.024-.051,1.535,0,.08-.126.153-.193.229-.04-.049-.11-.094-.117-.147a6.264,6.264,0,0,1-.062-.764c0-1.345.048-2.692,0-4.036-.09-2.488-.234-4.974-.36-7.462a2.758,2.758,0,0,0-.077-.57c-.02-.078-.125-.135-.189-.2-.079.092-.211.177-.226.278a11.575,11.575,0,0,0-.147,1.521c-.006,3.392.007,6.784.008,10.176a1.752,1.752,0,0,1-.091.562c-.026.078-.158.129-.253.168-.021.009-.117-.082-.123-.133a12.149,12.149,0,0,1-.108-1.321c.025-4.355.072-8.709.088-13.064,0-.828-.1-1.657-.174-2.484a.34.34,0,0,0-.229-.227c-.076-.014-.247.1-.254.164-.058.505-.1,1.013-.119,1.521q-.2,7.1-.375,14.2a8.11,8.11,0,0,0,.015,1.343,3.21,3.21,0,0,1-.373,2.2,4.064,4.064,0,0,0-.321,1.856c-.033,1.407.019,2.815.02,4.223a10.891,10.891,0,0,1-.089,1.132c-.005.047-.1.129-.137.119-.1-.032-.273-.1-.274-.155-.044-1.15-.093-2.3-.088-3.45.024-4.74.067-9.479.1-14.219a3,3,0,0,0-.1-.56,2.793,2.793,0,0,0-.377.581,30.492,30.492,0,0,0-1.459,10.586c.075,4.034.156,8.077-.045,12.1-.138,2.747-.255,5.482-.191,8.229,0,.183-.208.371-.32.557-.1-.208-.288-.414-.292-.624-.024-1.6-.012-3.2-.011-4.8q.005-5.761.007-11.521c0-1.473-.017-2.947-.035-4.421,0-.081-.1-.161-.153-.242-.088.084-.237.155-.257.252a31.39,31.39,0,0,0-.592,3.187c-.106,1.079-.02,2.177-.062,3.265a1.908,1.908,0,0,1-.267,1.047c-.277.358-.156.551.072.8.744.815.876,1.238.19,1.866a2.03,2.03,0,0,0-.627,1.7q-.053,4.13-.121,8.261a25.57,25.57,0,0,1-.235,4.208,11.589,11.589,0,0,0,.136,2.654c.018.311.012.625,0,.937,0,.05-.086.143-.119.137-.115-.02-.275-.044-.321-.122a1.061,1.061,0,0,1-.161-.529c.064-1.849-.225-3.71.227-5.55a6.4,6.4,0,0,0,.061-1.532q-.014-4.036-.046-8.073a8.272,8.272,0,0,0-.052-1.15c-.022-.158-.189-.3-.29-.443-.093.111-.262.215-.271.333-.226,2.8-.335,5.6-.351,8.405-.017,3.2-.069,6.405-.107,9.608-.005.448-.01.9-.04,1.343-.006.092-.123.177-.189.265-.057-.109-.158-.215-.165-.328-.028-.447-.031-.9-.037-1.344-.01-.833-.005-1.666-.032-2.5-.008-.285.108-.712-.349-.726-.131,0-.4.366-.392.561a5.014,5.014,0,0,1-.953,2.369c-.309.616-.617,1.233-.938,1.843-.05.1-.226.236-.251.219-.807-.54-1.249.5-1.905.436a3.54,3.54,0,0,1-1.428-.45,5.958,5.958,0,0,0-3.509-.67,1.375,1.375,0,0,0-.963.466,3.022,3.022,0,0,1-2.755,1.365c-1.033-.007-1.033.052-1.168,1.044-.032.236-.064.473-.1.709-.029-.251-.065-.5-.085-.753a7.091,7.091,0,0,0-.043-.765,2.3,2.3,0,0,0-.229-.5,1.3,1.3,0,0,0-.209.428c-.032.446-.022.9-.023,1.344,0,1.474.038,2.949-.01,4.421-.081,2.553-.212,5.1-.332,7.655a1.031,1.031,0,0,1-.145.327c-.072-.1-.194-.187-.208-.293a5.186,5.186,0,0,0-1.034-2.79,1.537,1.537,0,0,1-.159-.92c.029-1.92.117-3.839.111-5.759-.005-2.238-.079-4.476-.15-6.713a.816.816,0,0,0-.328-.616,1.423,1.423,0,0,1-.763-1.422,30.545,30.545,0,0,1-.258-4.917,8.337,8.337,0,0,0-.308-3.024c-.364-1.281-.033-2.706-.847-3.884a.807.807,0,0,1-.024-.547c.466-2.222.116-4.465.169-6.7.075-3.136.024-6.276.1-9.412.087-3.584.261-7.166.387-10.75a8.842,8.842,0,0,0-.034-1.725,2.575,2.575,0,0,0-.53-1.176c-1.275-1.539-1.482-3.135-.409-4.653.322-.455.634-.75.29-1.32-.066-.11.127-.419.255-.6a2.87,2.87,0,0,0,.672-2.106,6.382,6.382,0,0,1,.228-2.443,3.206,3.206,0,0,0,.117-.95,21.532,21.532,0,0,1-.217-3.785,16.994,16.994,0,0,0,.048-3.592c-.162-1.9-.182-3.807-.259-5.711-.022-.565-.036-1.129-.05-1.694a4.684,4.684,0,0,1,.09-1.7,3.512,3.512,0,0,0,.039-1.519,11.149,11.149,0,0,1,0-3.952.734.734,0,0,0-.523-.9,1.17,1.17,0,0,0-.858.132,1.815,1.815,0,0,0-.924,1.75c.055,1.471.011,2.946.007,4.42,0,.32,0,.641-.006.961a2.846,2.846,0,0,1-.056.376,1.7,1.7,0,0,1-.117-.388c-.018-.319-.008-.64-.009-.961,0-1.473,0-2.947-.014-4.421,0-.431.086-1.05-.45-1.108-.335-.036-.788.356-1.067.665a2.75,2.75,0,0,0-.444,1.041,24.034,24.034,0,0,0-1.053,7.364c.042,2.879-.085,5.761-.127,8.642-.021,1.537-.016,3.075-.023,4.613a5.814,5.814,0,0,1-.028,1.341,5.922,5.922,0,0,0,0,3.212c.063.21-.075.483-.133.724-.012.049-.1.127-.125.118-.111-.032-.28-.072-.307-.15a2.082,2.082,0,0,1-.151-.738,21.748,21.748,0,0,1,.218-4.784,6.286,6.286,0,0,0,.063-1.531c-.007-2.563.089-5.132-.066-7.687-.185-3.051-.131-6.144-1.059-9.114-.172-.548-.308-1.107-.484-1.654a.387.387,0,0,0-.277-.211.415.415,0,0,0-.3.16,6.524,6.524,0,0,0-1.057,3.244,19.567,19.567,0,0,0-.145,2.682c-.017,2.627-.006,5.254-.006,7.881,0,.513.01,1.026-.019,1.537a1.323,1.323,0,0,1-.209.447,2.115,2.115,0,0,1-.178-.522c-.029-.447-.018-.9-.018-1.345,0-2.178-.023-4.357.006-6.535a24.075,24.075,0,0,0-.842-5.673c-.191-.838-.69-.991-1.421-.526-1.675,1.067-1.62,1.077-1.95,2.909a48.378,48.378,0,0,0-.256,7.089c-.094,2.815-.07,5.634-.1,8.451a4.316,4.316,0,0,1-.111.744c-.008.046-.071.081-.11.121-.039-.05-.109-.1-.114-.151-.041-.441-.1-.884-.1-1.326q-.034-5.858-.051-11.715c0-.192.056-.425-.03-.57a7.016,7.016,0,0,1-.687-3.294c-.012-.178-.316-.336-.484-.5-.166.174-.421.321-.483.527a20.1,20.1,0,0,0-.9,5.663c0,.513.008,1.025,0,1.538q-.155,7.678-.317,15.356c-.009.447-.02.894-.023,1.342,0,.595.336,1.237-.248,1.749-.473-.561-.245-1.222-.242-1.841.021-4.933.062-9.865.086-14.8a25.972,25.972,0,0,0-.893-7.212c-.26-.925-.783-1.252-1.664-.955a1.114,1.114,0,0,0-.527.5,3.139,3.139,0,0,0-.212.749,2.658,2.658,0,0,0-.317-.661.5.5,0,0,0-.47.067,2.732,2.732,0,0,0-.472,1.023,36.794,36.794,0,0,0-.445,4.185c-.064,3.2-.018,6.407-.022,9.61q0,.768-.049,1.535c0,.066-.137.128-.218.178a.283.283,0,0,1-.112-.14c-.031-.318-.061-.638-.062-.957-.006-1.666.039-3.333-.013-5-.07-2.234-.194-4.468-.34-6.7a9.009,9.009,0,0,0-.389-1.676c-.028-.107-.147-.19-.225-.284a1.567,1.567,0,0,0-.1.367c-.018.64-.023,1.281-.029,1.921-.009.833-.009,1.665-.028,2.5a1.1,1.1,0,0,1-.137.342c-.085-.136-.236-.269-.242-.407-.03-.832-.017-1.665-.037-2.5a10.6,10.6,0,0,0-.1-1.72c-.09-.475-.212-1.171-.537-1.33-.769-.377-.641.756-1.175.952a.662.662,0,0,0-.22.605,4.6,4.6,0,0,1,.384,2.939,6.707,6.707,0,0,0,.51,2.217,5.447,5.447,0,0,1,.222,2.052,9.877,9.877,0,0,0,.271,2.816c.086.464.347.028.526-.031.063.279.254.754.169.809-.991.647.021,1.676-.493,2.387a34.467,34.467,0,0,1,.482,4.107,37.612,37.612,0,0,1,.1,4.013c.042.666.423,1.308.471,1.974a5.526,5.526,0,0,0,.116,2.068.953.953,0,0,1,.042.731,2.781,2.781,0,0,0,.108,2.417,4.424,4.424,0,0,1,.073,1.464c.039.471.378.887.323,1.439a14.125,14.125,0,0,0,.077,1.878c.061,1.8.1,3.6.178,5.4a4.124,4.124,0,0,0,.229,1.5,2.123,2.123,0,0,1,.1,1.66,1.257,1.257,0,0,0-.013.748,5.024,5.024,0,0,1,.468,2.558,11.267,11.267,0,0,0,.245,2.428c.059.875-.047,1.767.076,2.63.324,2.27-.208,4.533.014,6.8.08.821.108,1.647.135,2.472.026.8.347,1.621-.173,2.4a1.2,1.2,0,0,0-.122.741,7.619,7.619,0,0,1-.831,3.7c-.287.7-.481,1.352-1.4,1.633a1.512,1.512,0,0,0-1.022,2.135c.043.122-.135.323-.209.488-.177-.127-.457-.222-.509-.388-.11-.347-.17-.614-.591-.325-.052.036-.09.1-.146.124-1.448.659-1.411.662-1.558,2.08-.263,2.551-.243,5.108-.257,7.666-.028,4.932-.087,9.865-.14,14.8a11.042,11.042,0,0,1-.1,1.338,13.757,13.757,0,0,0,.021,4.582,2.631,2.631,0,0,1,0,.948c-.022.124-.242.236-.395.3-.051.021-.226-.114-.25-.2a2.884,2.884,0,0,1-.115-.748c-.007-1.73,0-3.46,0-5.189,0-5.507.018-11.013-.012-16.519-.008-1.466-.2-2.929-.231-4.4a19.177,19.177,0,0,0-.734-3.756,6.163,6.163,0,0,0-1.747-2.823,2.394,2.394,0,0,1-.7-1.255c-.112-.556-.356-1.085-.514-1.634a10.17,10.17,0,0,1-.223-1.094c-.021-.123.05-.276,0-.379a10.4,10.4,0,0,1-.636-4.2,4.333,4.333,0,0,1,.125-1.848c.222-.587-.074-1.29.01-1.994a12.932,12.932,0,0,1,.438-2.348,4.5,4.5,0,0,0,.272-2.819,7.214,7.214,0,0,1,.405-2.337c.127-.359.223-.73.333-1.1.359-1.18-.3-1.954-1.089-2.657a.575.575,0,0,0-.521-.057,17.973,17.973,0,0,1-2.206,1.037.755.755,0,0,0-.41.388c-.3.782-1.023,1.032-1.628,1.481-.782.581-1.943.74-2.3,1.853-1.068.3-1.161,1.286-1.42,2.1a28.838,28.838,0,0,0-1.38,8.875c.009,2.178.037,4.358,0,6.535-.106,5.63-.255,11.259-.367,16.888-.022,1.151.059,2.3.065,3.455a12.766,12.766,0,0,1-.114,1.505c-.005.054-.182.1-.286.125a.178.178,0,0,1-.155-.07,2.483,2.483,0,0,1-.249-.706,16.293,16.293,0,0,1-.083-2.3c.452-6.392.412-12.794.323-19.192-.041-2.932-.356-5.865-.651-8.787a21.943,21.943,0,0,0-.805-3.352c-.041-.149-.252-.364-.374-.356a.872.872,0,0,0-.637.276,2.216,2.216,0,0,0-.346,1.07,24.86,24.86,0,0,0,.171,2.659,5.214,5.214,0,0,1-.084,3.016A2.732,2.732,0,0,0,2584.8,548c-.021,2.559-.022,5.119-.032,7.679a1.08,1.08,0,0,1-.022.379c-.037.095-.154.159-.236.237-.069-.1-.2-.2-.2-.3.009-1.663.047-3.325.053-4.988.011-2.306.014-4.613-.005-6.919-.01-.96-.083-1.919-.144-2.877,0-.082-.138-.224-.2-.22a.413.413,0,0,0-.293.183,2.924,2.924,0,0,0-.193.541,36.191,36.191,0,0,0-1.774,11.7c.044,5.828.038,11.66-.148,17.484-.081,2.552-.283,5.1-.2,7.659.016.5.1,1,.112,1.509,0,.084-.162.243-.252.246-.163.005-.4-.032-.478-.141a1.311,1.311,0,0,1-.245-.7c.017-1.535.06-3.069.11-4.6.014-.446.111-.891.115-1.337.05-4.932.1-9.863.124-14.795.006-1.279-.077-2.559-.123-3.838,0-.126-.028-.25-.042-.375a1.284,1.284,0,0,0-.123.349c-.029.511-.028,1.024-.062,1.535-.007.1-.12.194-.183.291a1.415,1.415,0,0,1-.266-.226,5.005,5.005,0,0,1-.5-.789.682.682,0,0,1,.038-.49c.1-.221.362-.411.369-.621a31.966,31.966,0,0,0-.629-8.769c-.145-.6-.5-.7-.909-.278a6.98,6.98,0,0,0-1.886,3,21.444,21.444,0,0,0-.722,6.073,40.2,40.2,0,0,1-.231,7.091,6.85,6.85,0,0,0-.034,1.151q.005,4.32.014,8.641a1.012,1.012,0,0,1-.051.377,1.375,1.375,0,0,1-.226.294c-.08-.1-.226-.191-.228-.289-.022-1.023-.023-2.046-.028-3.068-.02-5-.033-9.991-.069-14.986a5.954,5.954,0,0,0-.25-1.3c-.025-.1-.154-.182-.236-.272a1.582,1.582,0,0,0-.11.345c-.054.637-.1,1.274-.138,1.913-.018.32,0,.641-.011.961a2.7,2.7,0,0,1-.062.375,2.357,2.357,0,0,1-.116-.458c-.032-.767-.043-1.535-.079-2.3,0-.1-.112-.19-.172-.285-.072.1-.195.183-.21.287a20,20,0,0,0-.289,2.275c-.055,1.728-.042,3.459-.058,5.189q-.039,4.7-.08,9.409a4.024,4.024,0,0,1-.018.575,1.147,1.147,0,0,1-.168.322c-.071-.092-.2-.183-.2-.277-.021-1.024-.025-2.049-.031-3.073-.022-4.031-.024-8.063-.081-12.094a13.24,13.24,0,0,0-.378-2.264.374.374,0,0,0-.259-.223.307.307,0,0,0-.238.189c-.125,2.224-.706,4.425-.26,6.68a9.135,9.135,0,0,1,.05,2.1c-.048,1.277-.174,2.551-.206,3.828q-.147,5.855-.241,11.711c-.014.89.108,1.781.12,2.673,0,.17-.218.342-.335.514-.132-.194-.38-.389-.376-.58a28.11,28.11,0,0,1,.163-5.552,6.308,6.308,0,0,0,.083-1.336c0-2.883.02-5.767-.033-8.649-.048-2.619-.18-5.237-.283-7.855-.015-.383-.068-.765-.112-1.147a.58.58,0,0,0-.082-.17c-.059.075-.157.143-.17.225a5.766,5.766,0,0,0-.071.765c-.02.768-.026,1.537-.046,2.305a5.661,5.661,0,0,1-.072.566,3.664,3.664,0,0,1-.082-.517c-.012-.512.019-1.027-.011-1.537-.046-.756-.13-1.51-.2-2.266-.788-.483-1.4.412-2.171.266-.482-.092-.648.307-.679.724-.056.765-.129,1.532-.134,2.3-.017,2.563.007,5.126-.015,7.688a10.971,10.971,0,0,1-.19,2.285c-.267,1.2.179,2.379-.082,3.6a18.5,18.5,0,0,0-.13,3.424c-.011.512.01,1.025-.013,1.536a.5.5,0,0,1-.205.272c-.156-.079-.412-.194-.414-.3a16,16,0,0,1,.034-2.863,22.242,22.242,0,0,0,.039-4.59c-.061-1.271-.061-2.546-.052-3.819.021-2.815.073-5.63.094-8.444,0-.314-.143-.626-.166-.944-.04-.535-.356-.69-.826-.863-.6-.222-1.361-.285-1.626-1.074a8,8,0,0,0-.689-1.71,2.05,2.05,0,0,1-.059-1.813c.236-.907-.181-1.825.029-2.781a6.649,6.649,0,0,0-.1-3.74c-.151-.424.115-.979.063-1.461-.082-.744.748-1.486-.007-2.217a16.42,16.42,0,0,1,.315-2.227c.179-.645-.541-1.161-.09-1.843a1.734,1.734,0,0,0-.107-1.825c-.1-.177.046-.478.072-.723.093-.862.515-1.726-.1-2.581-.106-.147.078-.481.071-.727a5.19,5.19,0,0,0-.308-2.616c-.06-.1-.143-.294-.1-.349.7-.852.008-1.656-.064-2.478-.01-.127-.055-.289,0-.377.643-.977,0-1.977.035-2.964a18.639,18.639,0,0,0-.367-2.779,6.461,6.461,0,0,1-.054-1.527,6.842,6.842,0,0,0-.257-3.83,2.574,2.574,0,0,1,.027-.932c.124-.99.134-.957-.962-.864a4.08,4.08,0,0,0-1.262.321c-1.155.478-2.4.741-3.521,1.284a4.545,4.545,0,0,0-2.278,2.705,14.317,14.317,0,0,0-.565,3c-.108,1.016-.078,2.047-.114,3.071-.007.19-.042.378-.065.567a3.888,3.888,0,0,1-.113-.63,21.268,21.268,0,0,0-.6-4.553,9.324,9.324,0,0,0-.273-.919.527.527,0,0,0-.9-.175c-.215.225-.337.539-.548.768a.441.441,0,0,1-.433-.007c-.475-.546-.817-.134-1.1.178a2.226,2.226,0,0,0-.392.863,18.021,18.021,0,0,0-.8,4.9c-.011,1.41,0,2.819-.027,4.228-.043,2.624-.1,5.247-.15,7.87,0,.128,0,.257-.009.384a1.462,1.462,0,0,1-.037.188.66.66,0,0,1-.084-.2c-.014-.191-.01-.384-.013-.576-.032-3.651-.1-7.3-.083-10.953a18.2,18.2,0,0,0-.833-5.094c-.046-.16-.262-.426-.3-.409-.214.088-.514.214-.57.394a11.733,11.733,0,0,0-.658,3.762c.04,1.793,0,3.588-.019,5.381,0,.135-.151.268-.232.4-.053-.112-.15-.223-.153-.336-.025-.96-.031-1.921-.045-2.881a2.934,2.934,0,0,0-.392-1.833,2.141,2.141,0,0,1-.15-1.093,7.259,7.259,0,0,0,.058-.945,9.911,9.911,0,0,0-.384-1.272c-.665.169-.534.8-.67,1.236a22.553,22.553,0,0,0-.971,7.569,5.371,5.371,0,0,1-.184,1.1c-.5-.26-.3-.738-.277-1.1a19.99,19.99,0,0,0-.89-6.627.8.8,0,0,0-.514-.412c-.111-.031-.381.168-.425.311a10.013,10.013,0,0,0-.392,1.663c-.074.568-.039,1.15-.075,1.725-.006.108-.12.209-.185.314-.066-.1-.181-.19-.189-.292-.035-.51-.019-1.025-.067-1.534a2.959,2.959,0,0,0-.229-.921.584.584,0,0,0-.45-.231,1.279,1.279,0,0,0-.538.176c-.691.334-1.377.681-2.068,1.019a6.426,6.426,0,0,0-1.7.869c-.37.359-.447,1.015-.672,1.532-.043.1-.175.153-.266.228a2.229,2.229,0,0,1-.185-.318c-.045-.118-.036-.258-.086-.371s-.163-.294-.219-.284c-.161.03-.394.1-.447.225a18.727,18.727,0,0,0-1.578,6.294c-.021.319-.015.641-.008.961.133,5.058-.234,10.1-.434,15.15-.023.571.089,1.147.1,1.721a1.617,1.617,0,0,1-.184.523c-.073-.152-.205-.3-.21-.455-.022-.831-.022-1.662-.013-2.493a58.6,58.6,0,0,1,.194-7.1,18.52,18.52,0,0,0-.026-3.062c-.031-.764-.118-1.526-.183-2.289a28.239,28.239,0,0,0-.6-4.694c-.043-.163-.227-.29-.345-.433a3.435,3.435,0,0,0-.242.472,21.786,21.786,0,0,0-1.135,6.973c.008,1.6.03,3.2,0,4.805-.061,2.814-.18,5.627-.237,8.441-.044,2.174-.025,4.349-.039,6.523a11.219,11.219,0,0,1-.061,1.146c-.011.1-.149.188-.229.282-.079-.1-.193-.184-.227-.3a2,2,0,0,1-.076-.568c0-1.089.006-2.178.005-3.267,0-5.571.052-11.144-.055-16.713a30.943,30.943,0,0,0-.824-4.9c-.032-.173-.2-.32-.3-.48a3.871,3.871,0,0,0-.3.561,19.823,19.823,0,0,0-.779,6.639,50.355,50.355,0,0,1-.237,7.857,6.544,6.544,0,0,0-.029.96q0,5.378.01,10.755a1.156,1.156,0,0,1-.04.379,1.478,1.478,0,0,1-.208.31c-.08-.088-.22-.17-.228-.264-.036-.445-.047-.893-.045-1.339.025-3.522.078-7.044.074-10.566,0-2.689-.009-5.381-.136-8.066a33.707,33.707,0,0,0-1.683-8.039c-.031-.1-.178-.17-.271-.253-.059.093-.161.18-.173.278-.185,1.521-.429,3.039-.515,4.565-.089,1.6-.021,3.2-.023,4.8,0,.192,0,.385-.015.576a.869.869,0,0,1-.05.183.712.712,0,0,1-.106-.221c-.019-.191-.015-.384-.015-.576,0-1.537.057-3.078-.023-4.612a22.438,22.438,0,0,0-.475-3.4c-.145-.7-.7-.719-1.223-.119-1,1.142-1.09,1.284-1.157,2.578-.046.895-.018,1.794-.03,2.69,0,.191-.036.38-.055.57a5.028,5.028,0,0,1-.094-.635c-.013-.641.024-1.283-.018-1.921a11.667,11.667,0,0,0-.243-1.7.546.546,0,0,0-.9-.3,4.707,4.707,0,0,1-.444.363,4.748,4.748,0,0,0-2.3,3.285,32.562,32.562,0,0,0-1.484,9.816c.05,3.01.027,6.023.006,9.034-.02,2.751-.08,5.5-.124,8.252a1.208,1.208,0,0,1-.029.38c-.035.092-.147.221-.217.217-.105-.006-.284-.1-.294-.182a5.571,5.571,0,0,1-.126-1.7,25.844,25.844,0,0,0,.186-4.977c.015-1.6.018-3.2.061-4.8a64.226,64.226,0,0,0-.38-9.579,27.439,27.439,0,0,0-.854-3.737c-.122-.457-.107-1.015-.606-1.312-.493.458-1.318.49-1.57,1.267-.789,2.434-1.676,4.846-1.57,7.468.01.256,0,.513,0,.769.129,4.868-.355,9.718-.418,14.581-.007.574.066,1.149.09,1.724.016.358.151.751-.239,1.016a5.338,5.338,0,0,1-.221-1.084q.014-7.589.067-15.177a26.687,26.687,0,0,0-1.022-6.037c-.057-.254-.138-.733-.576-.588a1.438,1.438,0,0,0-.654.626,2.566,2.566,0,0,0-.162.743c-.051.221-.12.439-.181.658a6.811,6.811,0,0,0-.118-.755.411.411,0,0,0-.234-.267.4.4,0,0,0-.33.135,2.488,2.488,0,0,0-.372.659,21.831,21.831,0,0,0-1.394,7.312c.037,3.074-.043,6.149-.072,9.223a2.415,2.415,0,0,1-.016.384,2.482,2.482,0,0,1-.115.358,1.119,1.119,0,0,1-.133-.332c-.043-.9-.109-1.792-.1-2.687a54.536,54.536,0,0,0-.524-7.623c-.1-.8-.124-1.633-.3-2.436a1.642,1.642,0,0,0-.288-.459c-.1.117-.265.218-.306.354a25.681,25.681,0,0,0-1.087,7.176c-.028,4.74-.079,9.48-.121,14.221a5.172,5.172,0,0,1-.024.767,1.586,1.586,0,0,1-.218.437,5.031,5.031,0,0,1-.189-.522,1.559,1.559,0,0,1-.015-.383c.011-2.754.048-5.509.026-8.263a57.07,57.07,0,0,0-.394-8.427c-.216-1.383-.641-2.733-.985-4.094-.027-.1-.176-.172-.269-.258-.065.093-.171.179-.189.28-.255,1.443-.508,2.887-.739,4.334a6.829,6.829,0,0,0-.017.96q-.08,5.859-.165,11.716a4.1,4.1,0,0,1-.1.622c-.021-.187-.057-.375-.061-.563-.032-1.729-.072-3.458-.083-5.187-.015-2.178-.024-4.357,0-6.535a16.069,16.069,0,0,0-.8-4.712c-.137-.472-.442-.606-.872-.357-.882.513-1.756,1.044-2.6,1.614a3.084,3.084,0,0,0-1.444,2.557c-.066,2.111-.118,4.223-.185,6.334-.019.594-.07,1.187-.106,1.781-.021-.574-.056-1.147-.061-1.722-.01-1.217.016-2.435-.012-3.652a15.074,15.074,0,0,0-.181-2.1c-.058-.352-.216-.862-.462-.959s-.732.166-.976.409c-.651.647-1.332,1.222-1.217,2.385a35.924,35.924,0,0,1-.053,4.413,3.576,3.576,0,0,1-.094.538,5,5,0,0,1-.088-.562c-.074-1.6-.133-3.2-.225-4.792-.008-.144-.188-.3-.324-.4-.045-.033-.252.07-.312.159a1.6,1.6,0,0,1-1.174.875c-.247.031-.453.383-.677.59-.271.251-.521.685-.816.718-.737.083-1.067.651-1.546,1.04a10.609,10.609,0,0,0-1.38,1.222,4.654,4.654,0,0,0-1.15,1.94,20.184,20.184,0,0,0-.642,7.771,8.643,8.643,0,0,1-.01,1.724c-.068,1.146-.225,2.29-.236,3.435-.037,3.714-.022,7.429-.03,11.143a.388.388,0,0,1-.022.189,2.993,2.993,0,0,1-.215.3c-.071-.1-.2-.2-.206-.308-.015-1.536-.01-3.073-.017-4.609-.021-4.611.01-9.223-.1-13.831a26.005,26.005,0,0,0-.705-4.145c-.03-.16-.247-.429-.314-.411a1.539,1.539,0,0,0-.578.358c-.085.076-.07.26-.152.345-.334.345-.183,1.375-1.155.835-.464.579-1.2,1.1-1.337,1.748a14.662,14.662,0,0,0-.367,4.55,18.14,18.14,0,0,1,.116,1.911c0,.763-.43,1.509-.512,1.3a4.012,4.012,0,0,1-.224-1.279c-.032-.832.037-1.669-.025-2.5a25.948,25.948,0,0,0-.369-2.648c-.088-.484-.334-.582-.593-.254-.627.793-1.71,1.158-2.038,2.246-.067.219-.478.33-.726.5-.778.526-1.74.857-2.026,1.907a.263.263,0,0,1-.1.16c-1.286.639-1.11,1.855-1.142,2.963-.038,1.345,0,2.691-.01,4.036a4.625,4.625,0,0,1-.073.563,3,3,0,0,1-.129-.612c-.01-1.089.009-2.178,0-3.267a6.352,6.352,0,0,0-.093-1.144.387.387,0,0,0-.565-.321,1.807,1.807,0,0,0-1.257,1.713c-.016,3.968-.1,7.936-.149,11.9-.005.448.038.9.022,1.344a1.923,1.923,0,0,1-.176.52,1.357,1.357,0,0,1-.229-.449c-.028-.316.022-.639.021-.958q-.028-4.319-.065-8.638c-.007-.833.006-1.666-.029-2.5-.024-.557-.213-.68-.825-.606-.435.052-1.041-.023-1.265.23-.649.732-1.261.486-1.84.075a24.073,24.073,0,0,1-3.447-2.689,7.868,7.868,0,0,1-1.387-2.674,1.7,1.7,0,0,1,.2-1.269,13.232,13.232,0,0,1,2.585-3.848,5.459,5.459,0,0,0,.822-.978,5.888,5.888,0,0,1,2.063-1.914,4.336,4.336,0,0,0,1.917-1.816,2.764,2.764,0,0,1,1.952-1.7c.261-.041.45-.545.675-.835.185-.238.327-.6.569-.689,1.221-.447,1.968-1.531,3.044-2.172,1.033-.615,1.784-1.593,2.8-2.271.979-.653,1.763-1.594,2.806-2.2.193-.113.29-.389.435-.587a6.225,6.225,0,0,1,2.764-2.175,2.809,2.809,0,0,0,1.217-.848,5.077,5.077,0,0,1,1.931-1.426,3.8,3.8,0,0,0,1.87-1.545c.056-.11.138-.295.209-.3,1.072-.01,1.476-1.108,2.363-1.429.644-.234,1.374-.361,1.7-1.118.055-.127.308-.2.482-.237a4.593,4.593,0,0,0,2.251-1.374,3.11,3.11,0,0,1,.919-.6c.862-.371,1.8-.534,2.319-1.524a1.88,1.88,0,0,1,1.335-.618c1.153-.115,1.55-1.273,2.483-1.672.128-.055.168-.468.139-.7a10.9,10.9,0,0,0-.356-2.073,3.171,3.171,0,0,1-.267-1.842.873.873,0,0,0-.044-.566,7.832,7.832,0,0,1-.59-3.791,18.021,18.021,0,0,0-.566-3.551c-.107-.56-.334-1.092.092-1.635a1.1,1.1,0,0,0-.044-1.426,1.737,1.737,0,0,1-.181-1.781,4.4,4.4,0,0,0,.1-2.082,11.408,11.408,0,0,1-.082-3.52,2.584,2.584,0,0,0-.046-1.139c-.428-1.07-.21-2.218-.464-3.282a7.362,7.362,0,0,1-.178-3.086.6.6,0,0,0-.043-.373,3.476,3.476,0,0,1-.672-2.484c.208-.821-.1-1.582.058-2.4a4.442,4.442,0,0,0-.362-2.582c-.554-1.166-.243-2.532-1.074-3.641-.31-.413-.091-1.227-.1-1.857-.006-.245.029-.491.028-.737,0-.045-.094-.134-.129-.127-.106.022-.266.06-.29.131a1.823,1.823,0,0,0-.076.564c-.008.7.016,1.41-.006,2.114-.1,3.066-.213,6.131-.306,9.2-.023.767.026,1.536.007,2.3,0,.166-.155.329-.239.493-.1-.137-.274-.267-.285-.411a14.339,14.339,0,0,1-.041-1.533c.029-1.6.095-3.2.1-4.8.016-3.523.037-7.046-.01-10.568-.02-1.519.128-3.079-.652-4.507-.141-.257-.058-.629-.114-.942-.127-.691-.263-1.38-.424-2.063a1.536,1.536,0,0,0-.291-.437c-.126.113-.336.206-.367.34-.383,1.678-.807,3.352-1.081,5.05a18.928,18.928,0,0,0-.141,3.259c.092,6.47-.288,12.93-.379,19.4-.022,1.6.063,3.2.061,4.8,0,.149-.275.3-.423.448-.114-.138-.235-.271-.339-.415a.325.325,0,0,1-.038-.186c.026-1.727.043-3.454.088-5.181.018-.7.137-1.4.14-2.1.014-3.909.088-7.819-.016-11.725a45.546,45.546,0,0,0-1.534-12.134c-.443-1.462-.683-2.986-1.033-4.477-.032-.138-.2-.244-.3-.365-.106.144-.277.276-.307.435-.083.438-.078.893-.157,1.333-.176.968.976,1.934,0,2.9q-.037,1.534-.074,3.068c0,.128,0,.257-.018.384a.769.769,0,0,1-.073.176.979.979,0,0,1-.116-.268c-.021-.19-.01-.384-.015-.576-.019-.768-.014-1.538-.074-2.3-.018-.225.232-.6-.239-.691a5.935,5.935,0,0,1-.1.748c-.024.1-.159.17-.244.254-.078-.08-.227-.164-.222-.239.029-.506-.1-1.179.175-1.484.913-1.019.432-2.033.2-3.065a1.974,1.974,0,0,0-.293-.7.486.486,0,0,0-.428-.014,9.384,9.384,0,0,0-.595,1.405,36.615,36.615,0,0,0-1.58,8.655,29.717,29.717,0,0,0,.137,3.06,9.3,9.3,0,0,1,.067,1.912,46.7,46.7,0,0,0-.226,6.713c-.053,2.753.009,5.512-.168,8.257-.094,1.47.089,2.915.026,4.37-.008.178-.23.346-.353.519-.111-.135-.321-.271-.321-.406q0-3.165.063-6.33c.01-.572.128-1.142.131-1.713.013-2.5.038-5-.01-7.5-.054-2.94-.144-5.88-.29-8.816a19.883,19.883,0,0,0-.489-3.218c-.489-2.248-1.041-4.482-1.565-6.722-.213-.91-.346-1.072-1.411-1.2a3.989,3.989,0,0,1-3.081-2.037,2.006,2.006,0,0,1-.059-2.185c.478-.817,1.253-1.477,1.289-2.531,0-.127.246-.332.4-.354.878-.126.98-1.114,1.662-1.446.625-.3,1.242-.624,1.863-.934.221-.111.45-.311.667-.3a2.969,2.969,0,0,0,1.725-.737,5.34,5.34,0,0,1,1.157-.627,1.246,1.246,0,0,0,.966-1.229,68.023,68.023,0,0,0,.255-7.471q-.026-4.8,0-9.606a13.825,13.825,0,0,0-.99-4.612c-.2-.575-.229-1.209-.419-1.788a13.917,13.917,0,0,0-.762-1.739c-.066-.136-.252-.214-.384-.319-.091.149-.24.29-.264.449-.073.506-.1,1.019-.145,1.529-.011.127,0,.256-.005.384-.072,3.646.021,7.289-.241,10.942-.248,3.438-.05,6.909-.048,10.365a1.329,1.329,0,0,1-.011.381,3.86,3.86,0,0,1-.232.5c-.1-.136-.267-.265-.28-.408-.04-.444-.026-.894-.024-1.341.028-4.355.074-8.71.081-13.064,0-1.856-.033-3.714-.14-5.567a21.082,21.082,0,0,0-.47-3.218c-.457-2.125-.977-4.236-1.49-6.348-.039-.161-.218-.289-.332-.432-.16.16-.431.3-.46.484a13.008,13.008,0,0,0-.166,1.906c-.029,2.434-.031,4.867-.046,7.3,0,.32-.022.64-.047.958,0,.053-.074.1-.113.151-.07-.073-.195-.141-.2-.219-.035-.382-.05-.766-.051-1.15,0-1.6-.038-3.2.009-4.8a23.437,23.437,0,0,0-.513-3.982,2.616,2.616,0,0,0-2.278-2.246c-.37-.094-.645.055-.659.449-.028.765,0,1.532-.014,2.3a2.855,2.855,0,0,1-.111.743c-.02.067-.2.1-.309.122-.033.007-.12-.076-.123-.122a6.149,6.149,0,0,1-.039-1.1c.073-.625.259-1.239.3-1.865a1.676,1.676,0,0,0-.32-.874.616.616,0,0,0-.482-.239.541.541,0,0,0-.374.329,37.822,37.822,0,0,0-1.12,4.263,37.314,37.314,0,0,0-.434,5.15c-.065,3.2.021,6.4-.031,9.606-.051,3.322-.2,6.642-.285,9.963-.027,1.085.031,2.172.025,3.258,0,.164-.141.327-.218.49-.125-.189-.358-.377-.36-.566-.011-1.985.029-3.97.027-5.955q0-7.012-.033-14.023c-.008-1.341-.089-2.682-.176-4.02a42.082,42.082,0,0,0-1.32-6.376c-.249-1.122-.525-2.238-.726-3.369a2.566,2.566,0,0,0-1.859-2.194c-1.725-.541-2.642-2.149-4.074-3.09-.827-.544-1.027-1.576-1.429-2.449a2.115,2.115,0,0,1,.13-2.46,1.828,1.828,0,0,0,.239-.522c.19-.516.371-1.036.555-1.555,1.27-.362,2.383-1.57,3.731-1.2,1.125.313,2.4-.079,3.409.791a1.88,1.88,0,0,0,1.26.33,15.033,15.033,0,0,1,4.015.7,1.263,1.263,0,0,1,.8.485c.454.807,1.264.968,2,1.311a2.825,2.825,0,0,0,3.6-.491,3.277,3.277,0,0,1,3.881-.38c.278.158.54.344.812.514a3.453,3.453,0,0,1,1.839,3.683,1.7,1.7,0,0,0,1.023,2.028c.816.337,1.49,1.359,2.591.789.884.291,1.782.559,2.65.858.7.242,1.226.536,1.921.084.158-.1.5,0,.724.092.706.3,1.4.623,2.089.957.225.109.4.329.637.406,1.68.563,3.278,1.34,4.929,1.955a27.345,27.345,0,0,1,3.314,1.371c1.518.806,3.231.96,4.831,1.49,1.12-.538,1.729.855,2.742.726.505.758,1.4.492,2.094.765.671.264,1.407.717,2.181.183a.237.237,0,0,1,.188.013,7.67,7.67,0,0,0,1.72.751c.57.1,1.211-.44,1.762.218a1.009,1.009,0,0,0,.7.282c1.775.007,3.418.739,5.167.9a11,11,0,0,1,3.579.966,18.788,18.788,0,0,0,3.417.979,3.484,3.484,0,0,1,1.365.451,1.542,1.542,0,0,0,1.081.255,1.1,1.1,0,0,1,1.188.338.52.52,0,0,0,.325.188c1.9.006,3.246,1.3,4.8,2.092a4.731,4.731,0,0,1,2.1,2.883,1.874,1.874,0,0,1-.041.941,7.021,7.021,0,0,0-.308.9,2.347,2.347,0,0,1-.949,1.969c-.527.379-.479,1.319-1.422,1.385-.644.045-.953.792-1.733.9-.825.115-1.53.935-2.365,1.155-2.226.586-4.164,2-6.539,2.171-.582.042-1.117.548-1.706.745a31.393,31.393,0,0,0-3.531,1.1c-1.237.584-2.764.538-3.737,1.7a.4.4,0,0,1-.327.128c-1-.283-1.669.363-2.454.772-.461.241-.927.756-1.574.431-1.108.444-2.24.841-3.31,1.361a2.656,2.656,0,0,1-1.009.337,1.961,1.961,0,0,0-1.92,2.158c-.047,2.368-.052,4.737-.083,7.105a2.664,2.664,0,0,1-.1.548c-.006.027-.086.059-.124.051-.059-.012-.16-.051-.164-.085-.061-.7-.154-1.394-.155-2.092,0-1.92.036-3.841.048-5.761,0-.89-.115-.925-1.056-.662-.6.167-.937.82-1.655.8-.16,0-.407.473-.484.763a4.932,4.932,0,0,0-.073,1.145c-.041,2.177-.083,4.354-.107,6.531a1.887,1.887,0,0,0,.17.92c.084.148.46.1.664.213a4.51,4.51,0,0,0,2.5.519,7.705,7.705,0,0,1,3.3.81c.646.289,1.306-.407,1.8.208.461.574,1.072.105,1.583.292.225.082.5.045.705.156a6.7,6.7,0,0,0,3.789.949,2.238,2.238,0,0,1,.921.217c.525.2,1.015.549,1.619.288a6.032,6.032,0,0,0,2.365.751,8.763,8.763,0,0,0,1.253.307,4.633,4.633,0,0,1,1.395.49c.29.117.582.4.851.374,1.264-.119,2.246.7,3.365.936,1.67.35,3.265.928,4.918,1.284a1.886,1.886,0,0,1,1,.356,1.015,1.015,0,0,0,.694.258c1.063-.123,1.87.739,2.9.709,2.222,1.119,4.7,1.378,7.042,2.08a2.337,2.337,0,0,1,.994.446,3.516,3.516,0,0,0,1.669.872,38.208,38.208,0,0,1,4.542,1.166c.592.249,1.237.427,1.855.667s1.289.46,1.909.768c.482.239.715.108.784-.409a23.3,23.3,0,0,0-.219-8.548,1.05,1.05,0,0,1-.052-.367c.065-.45.5-1.141-.244-1.192-.455-.031-.184.74-.2,1.148-.047.895-.028,1.794-.087,2.687-.013.183-.247.35-.379.525-.105-.206-.306-.413-.3-.617.028-1.275.127-2.549.153-3.824a21.275,21.275,0,0,0-.069-3.437,4.554,4.554,0,0,1-.035-2.063c.035-.116-.131-.293-.2-.443-.048.1-.134.193-.136.291-.052,2.176-.078,4.354-.148,6.529-.034,1.082-.161,2.161-.207,3.242-.016.373.107.75.127,1.127a12.061,12.061,0,0,1,0,1.329c0,.074-.167.195-.257.195s-.268-.114-.271-.185c-.038-.888-.091-1.779-.061-2.666.032-.955.191-1.905.218-2.86.034-1.28-.007-2.562-.015-3.844a27.143,27.143,0,0,0-.066-4.029c-.2-1.291-.588-2.547-.709-3.873a17.226,17.226,0,0,0-.818-3.09.325.325,0,0,0-.271-.168.346.346,0,0,0-.214.253c-.062,1.919-.123,3.838-.156,5.758-.024,1.472-.006,2.946-.017,4.419a1.082,1.082,0,0,1-.129.345c-.083-.126-.237-.251-.237-.377,0-2.753.021-5.506.033-8.259.006-1.278.044-2.558-.006-3.834a7.7,7.7,0,0,0-1.365-3.925c-.061-.093-.319-.1-.468-.072-.083.018-.131.205-.193.316-.068-.079-.189-.154-.194-.236a9.4,9.4,0,0,1,0-.96,8.106,8.106,0,0,0-1.058-4.769c-.572-.944-.759-2.112-1.324-3.095a2.629,2.629,0,0,0-.212-.28c-.057.084-.147.163-.162.254a3.982,3.982,0,0,0-.026.575c0,.512-.007,1.025-.01,1.538a118.636,118.636,0,0,1-.32,12.277c-.108,1.01.484,2.091-.3,3.031-.561-.977-.119-2-.124-3-.021-4.357.034-8.715-.039-13.07-.017-1.028.282-2.187-.574-3.088-.061,1-.165,2.007-.173,3.011-.029,3.007.15,6.027-.066,9.02-.313,4.352-.108,8.706-.321,13.054-.038.764.057,1.533.05,2.3,0,.125-.217.357-.317.348a.526.526,0,0,1-.394-.313,9.161,9.161,0,0,1-.087-1.53c.073-2.235.208-4.468.244-6.7q.067-4.132,0-8.265c-.05-3-.173-6.006-.271-9.009-.075-2.262-.878-4.382-1.307-6.575-.32-1.629-.692-3.247-1.039-4.869a1.288,1.288,0,0,0-.085-.373c-.6-1.023-1.2-2.047-1.826-3.056-.166-.269-.422-.479-.616-.733-1.185-1.547-1.274-2.768-.351-4.7a11.9,11.9,0,0,1,1.191-1.479c.267-.257.645-.518.717-.835.168-.749.553-.8,1.1-.49a3.077,3.077,0,0,0,2.066.134,1.732,1.732,0,0,1,1.858.7,2.06,2.06,0,0,0,1.186.9,2.637,2.637,0,0,1,1.891,1.457c.259.607,1.172.413,1.4,1.2.118.405.805.612,1.07,1.017a4.794,4.794,0,0,1,.3,1.255.774.774,0,0,0,.339.451c.882.422,1.021,1.206,1.135,2.059a7.031,7.031,0,0,0,.5,1.826c.494,1.149,1.151,2.234,1.581,3.4.319.868,1.071,1.61.839,2.681-.052.242.2.594.388.836a1.874,1.874,0,0,1,.6,1.556c-.175.725.792,1,.549,1.754a1.328,1.328,0,0,0,.639,1.483c-.165,1.094.508,1.981.735,2.978.013.057-.048.139-.025.183,1.186,2.261.814,4.964,2.047,7.21.041,1.4.961,2.6.82,4.064a3.682,3.682,0,0,0,.5,1.62,4.536,4.536,0,0,1,.5,2.7c-.077.426.255.913.341,1.383.079.433.016.9.125,1.318.345,1.341.233,2.815,1.141,3.994-.417.835.577,1.5.281,2.34a1.37,1.37,0,0,0,.113.724c.051.178.219.336.23.51.053.814.026,1.636.113,2.446a9.892,9.892,0,0,1,.37,2.218,8.11,8.11,0,0,0,.54,3.546,8.41,8.41,0,0,1,.535,3.351,3.17,3.17,0,0,0,1.533,3.067,6.017,6.017,0,0,0,2.046,1.026c1.418.272,2.366,1.379,3.658,1.843.194.069.3.39.443.6a5.149,5.149,0,0,0,.9,1.226c1,.749,1.407,1.571.76,2.755a1.782,1.782,0,0,0-.046.752c0,.187.081.412,0,.555-.472.889-.979,1.759-1.474,2.636-.741,1.312-2.068,1.784-3.345,2.323a16.592,16.592,0,0,0-1.755.714c-.423.239-1.132.17-1.225.784-.09.6-.225,1.394.074,1.8.656.887-.092,1.885.44,2.709-.6.8.35,1.708-.171,2.515.868,1.746-.206,3.659.481,5.462.2.521-.159,1.2.233,1.887a4.394,4.394,0,0,1,.112,2,5.343,5.343,0,0,0,.105,2.38c.124.282-.216.739-.166,1.091a17.894,17.894,0,0,1,.451,1.989c.011.6-.486,1.251-.392,1.817a6.554,6.554,0,0,1,0,3.56.689.689,0,0,0,.091.547,1.427,1.427,0,0,1-.032,1.758,1.262,1.262,0,0,0,.583,1.615.522.522,0,0,0,.495-.088c.365-.425.685-.89,1.019-1.342.113-.152.192-.41.332-.447,1.059-.279,1.57-1.22,2.274-1.9a21.751,21.751,0,0,0,1.789-2.235,2.41,2.41,0,0,1,.5-.575c1.245-.8,1.874-2.187,3.066-3.077,1.4-1.047,2.557-2.416,3.9-3.542.463-.386.4-1.283,1.3-1.234.747.041.584-.892,1.125-1.172a16.127,16.127,0,0,0,1.512-1.12c.83-.562,1.66-1.132,2.537-1.615.711-.392,1.22-1.385,2.3-.875.057.026.394-.321.432-.526.08-.436.006-.9.077-1.337a5.884,5.884,0,0,1,.361-1.022c.042.51.055,1.024.134,1.529a.809.809,0,0,0,.826.669.731.731,0,0,0,.817-.638,3.278,3.278,0,0,0,.057-.571,88.981,88.981,0,0,0-.41-11.108,22.98,22.98,0,0,0-.59-2.806,1.613,1.613,0,0,0-.122-.363.215.215,0,0,0-.166-.073c-.035,0-.1.062-.1.1-.028.316-.065.634-.065.951,0,3.522.005,7.045-.012,10.567C2594.713,516.35,2594.9,517.033,2594.314,517.529Zm232.178,12.551.036.033c-.03-1.793-.039-3.586-.1-5.378-.018-.5-.03-1.206-.336-1.444-1.06-.826-.742-1.922-.8-2.953-.036-.633.043-1.277-.04-1.9-.212-1.593-.934-3.162-.139-4.786a.576.576,0,0,0-.016-.373c-.705-2.248-.491-4.674-1.348-6.894-.407-1.053-.8-2.114-1.125-3.194a10.111,10.111,0,0,1-.814-3.423,22.19,22.19,0,0,0-.161-5.115,7.279,7.279,0,0,1,.087-1.5,2.682,2.682,0,0,0,.023-.92,2.953,2.953,0,0,1,.12-1.876,10.163,10.163,0,0,0,.361-3.6c-.116-2.937-.1-5.878-.2-8.817a42.871,42.871,0,0,0-1.417-9.064c-.111-.442-.055-1.219-.687-1.2-.3.012-.607.7-.849,1.111a1.869,1.869,0,0,0-.139.745c-.023.254-.01.512-.014.768a6.172,6.172,0,0,1-.021.767,2.589,2.589,0,0,1-.185.518,1.483,1.483,0,0,1-.209-.454c-.072-.956-.083-1.918-.2-2.868a1.028,1.028,0,0,0-.526-.714,2.206,2.206,0,0,0-2.1,1.224c-.134.944-.166,1.9-.23,2.856-.029.445-.03.893-.055,1.339,0,.05-.079.1-.121.144-.073-.07-.205-.136-.208-.209-.027-.511.009-1.026-.045-1.533-.081-.759-.2-1.514-.342-2.265a.774.774,0,0,0-.3-.464,1.285,1.285,0,0,0-1.575.607c-.231.925-.378,1.872-.559,2.81q-.231,1.2-.457,2.407c-.475-.727-.093-1.558-.28-2.321-.077-.31-.131-.626-.2-.938-.517-2.36-.427-1.976-2.648-1.258a2.073,2.073,0,0,0-.809.5,2.6,2.6,0,0,0-.766,1.04,22.164,22.164,0,0,0-.773,4.13c-.166,3.836-.184,7.678-.246,11.518-.013.767.04,1.535.042,2.3,0,.105-.113.21-.173.316-.06-.107-.175-.216-.172-.322.026-.894.12-1.788.1-2.681-.049-3.136-.179-6.271-.189-9.407a24.963,24.963,0,0,0-.857-4.9,1.325,1.325,0,0,0-.734-.788,2.354,2.354,0,0,0-2.042-.044,6.02,6.02,0,0,1-3.654.571,1.267,1.267,0,0,0-1.451.974,12.151,12.151,0,0,0-.8,4.123c.007,2.177-.023,4.355-.038,6.532a3.867,3.867,0,0,1-.023.574c-.012.071-.117.127-.179.189-.031-.055-.083-.109-.086-.165-.008-.255.007-.512,0-.767a33.273,33.273,0,0,0-.6-7.436c-.163-.621.061-1.455-.723-1.853a14.634,14.634,0,0,0-.567,1.794,16.415,16.415,0,0,0-.314,2.657c-.094,4.224-.146,8.449-.21,12.673a1.136,1.136,0,0,1,0,.191c-.025.122-.064.24-.1.36a1.527,1.527,0,0,1-.146-.432c-.066-3.968-.1-7.937-.189-11.9a22.452,22.452,0,0,0-1.165-5.612.625.625,0,0,0-.4-.347,1.915,1.915,0,0,0-2.132,1.181,19.093,19.093,0,0,0-1.074,5.625c-.025,4.352-.1,8.7-.159,13.056,0,.123-.134.244-.207.367a1.257,1.257,0,0,1-.1-.351c0-2.944.023-5.887,0-8.831a29.655,29.655,0,0,0-.974-7.964c-.185-.65-.134-1.432-.8-1.892-.815.485-.393,1.355-.62,2.024a3.336,3.336,0,0,0-.082.758c-.049-.224-.1-.448-.146-.673-.073-.377-.116-.761-.216-1.131-.214-.79-.419-.912-1.216-.784a3.063,3.063,0,0,0-.378.071c-2.635.764-5.409.874-8.034,1.715a12.892,12.892,0,0,1-2.239.316c-.4.819.113,1.585.143,2.38s.447,1.606.042,2.422a13.857,13.857,0,0,1,.5,3.7.777.777,0,0,0,.076.176,4.989,4.989,0,0,1,.379,2.765,4.309,4.309,0,0,0,.328,2.219c.15.361.822.5,1.251.749.554.322,1.086.682,1.652.978a19.077,19.077,0,0,1,5.105,4.02,9.838,9.838,0,0,0,.966.887c.962.788,1.964,1.531,2.9,2.35,1.241,1.085,2.747,1.843,3.831,3.124a1.305,1.305,0,0,0,.677.342c.925.215,1.4,1.047,2.128,1.526.3.2.5.534.782.762a30.427,30.427,0,0,1,2.785,2.241,24.875,24.875,0,0,0,2.822,2.474,13.336,13.336,0,0,1,2.6,2.154,13.22,13.22,0,0,0,2.514,2.2,4.99,4.99,0,0,1,.526.518c1.583,1.691,3.424,3.11,5.006,4.806a18.143,18.143,0,0,1,1.93,2.074c.853,1.249,2.319,1.931,3.189,3.192.909.095,1.219.77,1.543,1.495a2.061,2.061,0,0,0,.8.812c.492.3,1,.526,1.056,1.224.012.151.356.37.564.389a.964.964,0,0,1,.907.577,5.7,5.7,0,0,0,1.343,1.547,14.073,14.073,0,0,0,2.458,2.326.8.8,0,0,1,.322.465c.139.715.747.991,1.215,1.41s.9.887,1.344,1.339a22.8,22.8,0,0,0,2.158,2.166,8.838,8.838,0,0,1,1.715,1.482c.087.113.456.008.7,0,0-.233.086-.585-.03-.679a2.244,2.244,0,0,1-.889-1.994,1.161,1.161,0,0,0-.282-.7,6.3,6.3,0,0,1-.971-3.214,14.78,14.78,0,0,0-1.208-4.729,2.3,2.3,0,0,1-.2-.917,1.049,1.049,0,0,0-.622-1.08c-.057.371-.108.744-.17,1.115C2826.816,528.921,2827.193,529.631,2826.491,530.08Zm-291.231-26.645h-.134q0,4.411,0,8.823a2.492,2.492,0,0,1-.1.553c-.013.057-.071.1-.108.156-.039-.051-.1-.1-.113-.153a3.8,3.8,0,0,1-.116-.743c.019-3.9.059-7.8.07-11.706a35.773,35.773,0,0,0-1.271-10.236c-.259-.882-.458-1.743-1.664-1.728-.278,0-.553-.262-.838-.388-.851-.377-1.056-.282-1.353.681a15.276,15.276,0,0,0-.652,4.539q.006,3.747,0,7.493a10.6,10.6,0,0,1-.038,1.534,62.731,62.731,0,0,0-.292,8.793,3.152,3.152,0,0,1-.176.716,2.108,2.108,0,0,1-.226-.622c-.025-.83-.013-1.662,0-2.492a68.1,68.1,0,0,1,.2-7.675,20.311,20.311,0,0,0-.068-3.249c-.027-.637-.167-1.277-.132-1.909.16-2.8-.664-5.442-1.336-8.1-.084-.333-.425-.89-.574-.867-.621.1.037.666-.192.874-.722.653-.489,1.492-.542,2.279a1.213,1.213,0,0,1-.057.377c-.039.092-.143.157-.219.234-.033-.055-.093-.107-.1-.164a13.35,13.35,0,0,0-.084-1.334,18.168,18.168,0,0,0-.532-2.409c-.069-.215-.494-.39-.776-.43-.138-.02-.438.295-.473.492a25.829,25.829,0,0,0-.511,3.593c-.084,2.751-.046,5.5-.059,8.258,0,.384,0,.768-.029,1.151,0,.065-.12.122-.185.183-.03-.055-.083-.108-.088-.164-.019-.255-.031-.51-.033-.766-.025-2.43-.018-4.86-.081-7.289a27.433,27.433,0,0,0-1.2-6.188.632.632,0,0,0-.35-.411,13.715,13.715,0,0,0-2-.334.8.8,0,0,0-.894.805c-.056.508-.088,1.019-.149,1.526-.013.1-.112.192-.172.287-.1-.065-.27-.111-.3-.2-.149-.485-.278-.978-.387-1.473-.2-.905-.438-1.623-1.659-1.622a9.225,9.225,0,0,1-2.361-.685c-.52-.15-1.025-.2-1.269.466a.414.414,0,0,1-.342-.006c-.153-.2-.216-.475-.383-.66a.92.92,0,0,0-1.629.308c-.087.238-.116.5-.2.735a5.5,5.5,0,0,1-.3.592c-.055-.18-.12-.357-.162-.54-.087-.372-.133-.757-.25-1.12s-.23-.832-.716-.719c-.231.054-.471.408-.56.675a15.49,15.49,0,0,0-.818,5.089c.021,2.754.007,5.508,0,8.262,0,.448-.008.9-.036,1.343-.006.1-.115.188-.176.282a1.02,1.02,0,0,1-.158-.332c-.028-.447-.035-.9-.036-1.343,0-2.177.017-4.355-.005-6.533a27.619,27.619,0,0,0-1.442-7.5c-.191-.646-.381-.692-1.172-.552-.223.039-.588.143-.654.05-.467-.652-1.141-.447-1.755-.508-1.144-.114-2.286-.259-3.43-.364-.823-.075-1.653-.133-2.478-.135-.15,0-.447.333-.427.478.24,1.741.431,3.5.833,5.2a18.41,18.41,0,0,1,.656,4.252,2.532,2.532,0,0,0,.253,1.278,3.993,3.993,0,0,1,.491,1.6c.275,1.744.81,3.452,1.019,5.2a15.887,15.887,0,0,1,.4,3.976,6.257,6.257,0,0,0,.446,2.031,3.032,3.032,0,0,1,.233,1.079,2.7,2.7,0,0,0,.2,1.271,16.327,16.327,0,0,1,.366,2.428c.046.374.008.76.074,1.129.253,1.419.55,2.831.8,4.251a5.682,5.682,0,0,1,.327,2.569.635.635,0,0,0,.081.37,27.932,27.932,0,0,1,.959,4.005,4.953,4.953,0,0,1,.3,1.844,4.236,4.236,0,0,0,.261,2.008,9.441,9.441,0,0,1,.023,2.262,3.373,3.373,0,0,0,.346,1.667,2.611,2.611,0,0,1,.374,2.179.6.6,0,0,0,.139.5.566.566,0,0,0,.516-.036,26.313,26.313,0,0,1,3.964-2.259,3.955,3.955,0,0,0,.728-.583,10.142,10.142,0,0,1,1.058-.818c.7-.419,1.434-1.1,2.154-1.1,1.026,0,1.4-1.109,2.349-1.009,1.037-.7,2.283-.966,3.267-1.849.871-.78,2.124-1.107,2.85-2.146.123-.177.452-.22.693-.3s.562-.047.714-.2a4.841,4.841,0,0,1,2.264-1.343c.857-.221,1.246-1.315,2.263-1.3.5-.885,1.563-.918,2.294-1.484.771-.6,1.765-.9,2.6-1.429a56.528,56.528,0,0,1,6.021-3.011,1.346,1.346,0,0,0,.906-1.322c-.01-.64.012-1.281,0-1.921-.078-3.773.067-7.549-.269-11.318a42.024,42.024,0,0,0-1.428-6.928c-.026-.1-.168-.177-.256-.264-.062.078-.171.15-.179.233-.12,1.27-.3,2.539-.322,3.811C2535.225,498.439,2535.261,500.937,2535.261,503.435ZM2503.1,456.273c-.1-1.239-.155-2.131-.238-3.021a25.7,25.7,0,0,0-.318-2.852c-.574-2.75-1.215-5.486-1.834-8.227a1.316,1.316,0,0,0-.148-.353,2.713,2.713,0,0,0-.225-.3,1.231,1.231,0,0,0-.215.311c-.306,1.035-.671,2.071.122,3.073a.492.492,0,0,1,0,.475c-.6.481-.482,1.143-.487,1.769-.018,1.664-.019,3.329-.039,4.994,0,.1-.114.2-.175.305a1.274,1.274,0,0,1-.174-.325,3.091,3.091,0,0,1-.038-.573c0-1.793-.018-3.587,0-5.38a22.418,22.418,0,0,0-.835-4.9,1.093,1.093,0,0,0-.923-.87c-1.251-.241-2.5-.534-3.758-.7-2.209-.291-1.971-.516-2.415,1.964-.011.062.008.131-.009.192-.14.558.318,1.222-.3,1.7-.053-.563-.082-1.128-.165-1.686-.092-.63-.229-1.254-.35-1.88-.036-.188-.022-.424-.132-.552-.195-.229-.454-.518-.71-.545-.2-.02-.49.288-.632.518a4.081,4.081,0,0,0-.306.9,24.29,24.29,0,0,0-1.169,6.584,21.234,21.234,0,0,0,.536,3.879c.708.538.347,1.38.483,2.055a6.555,6.555,0,0,0,.222,1.424,4.983,4.983,0,0,1,.646,2.37c-.18,1.163.417,2.06.581,3.087.058.364.165.72.226,1.084.119.7.427.98,1.014.692a17.909,17.909,0,0,0,2.8-1.088,12.116,12.116,0,0,1,2.488-.927c.76-.3,1.49-.677,2.232-1.02,1.076.378,1.512-.761,2.333-.983.177-.048.366-.057.546-.093C2502.71,457.187,2503.1,456.773,2503.1,456.273Zm175.672,23.354c-.354.578.038.976.2,1.453a17.845,17.845,0,0,1,.545,1.979,38.372,38.372,0,0,0,1.607,5.395c.137.373.489.677.432,1.16-.159,1.313.611,2.294,1.24,3.314.1.169.483.353.619.288,1.362-.648,3.134-.043,4.267-1.4.136-.163.469-.17.716-.23a13.627,13.627,0,0,0,4.942-2.287,5.438,5.438,0,0,1,3.192-1.133,1.86,1.86,0,0,1,1.684.727,14.965,14.965,0,0,0,1.132,1.529c.172.186.554.177.841.257a4.564,4.564,0,0,0,.213-.865.8.8,0,0,0-.227-.514q-1.457-1.569-2.9-3.152c-.953-1.05-2.142-1.869-3.04-3.014a3.743,3.743,0,0,0-1.673-1.485,2.966,2.966,0,0,1-1.44-1.326c-.232-.421-.4-.793-.867-.887-.486-.1-.687-.461-1-.768a10.687,10.687,0,0,0-2.784-2.264,5.237,5.237,0,0,1-1.937-1.424,7.471,7.471,0,0,0-2.8-2.237,6.858,6.858,0,0,1-2.1-1.577,22.128,22.128,0,0,0-3.411-2.417c-.056-.037-.353.129-.382.241a1.774,1.774,0,0,0-.064.88c.491,1.734,1.343,3.37,1.372,5.23a1.5,1.5,0,0,0,.2.722c.621,1.03.693,2.28,1.344,3.3A1.291,1.291,0,0,1,2678.772,479.627Zm-6,11.2h.013c0-.064,0-.128,0-.192a31.236,31.236,0,0,0-.056-3.259,25.9,25.9,0,0,0-.688-3.093c-.024-.1-.158-.18-.241-.269-.072.084-.2.166-.208.253-.026.51,0,1.023-.033,1.532s-.121,1.013-.185,1.518c-.032-.5-.09-1.009-.088-1.514.01-1.659-.037-3.3-.182-4.966-.151-1.736-1.419-3.144-1.181-4.926-.769-.757-.387-1.982-1.126-2.767a1.044,1.044,0,0,1-.114-.72c.095-1.026.2-2.042-.726-2.807-.054-.044.053-.252.021-.366a1.752,1.752,0,0,0-.221-.391c-.071.1-.187.195-.2.3-.45,2.9-.918,5.8-1.322,8.707-.2,1.451-.3,2.917-.406,4.379-.141,1.9-.251,3.8-.365,5.706-.031.51-.019,1.023-.047,1.533,0,.069-.138.13-.212.195-.042-.049-.115-.1-.12-.146-.026-.446-.05-.893-.057-1.34-.022-1.6-.035-3.2-.056-4.8a2.051,2.051,0,0,0-.063-.338,1.474,1.474,0,0,0-.205.3,3.018,3.018,0,0,0-.156.554c-.321,1.693-.647,3.386-.944,5.083a3.3,3.3,0,0,0-.013,1.144,5.474,5.474,0,0,1-.337,2.633c-.336,1.1-.643,2.205-.97,3.306-.124.418-.089.8.379.918.436.114.909.146,1.114-.423.043-.119.052-.251.1-.37.245-.66.369-.216.486.062.177.418.516.293.811.24q2.307-.411,4.61-.849c.75-.141,1.493-.309,2.243-.448a.83.83,0,0,0,.753-.929C2672.763,493.13,2672.767,491.978,2672.767,490.827Zm21.011,9.732.112-.008c-.02-.319-.028-.639-.062-.957-.163-1.6-.691-1.914-2.3-1.386a2.33,2.33,0,0,0-.709.256,6.4,6.4,0,0,1-2.672.855,8.869,8.869,0,0,0-1.3.275c-.629.261-1.219.622-1.826.94.12.6.221,1.212.365,1.81.133.558.3,1.109.478,1.656.075.232.149.55.325.649a1.137,1.137,0,0,1,.545,1.14,6.286,6.286,0,0,0,.788,2.726c.474,1.018.856,2.078,1.28,3.12-.344.85.249,1.456.6,2.093.187.339.416.574.31,1.02a1.744,1.744,0,0,0,.179.889c.193.533.417,1.055.645,1.575.3.692.671,1.359.915,2.07a14.783,14.783,0,0,0,.579,2.185,22.629,22.629,0,0,1,1.605,3.81,5.075,5.075,0,0,0,.954,1.413.525.525,0,0,0,.442-.1,1.963,1.963,0,0,0,.183-.913,5.3,5.3,0,0,1-.19-2.257c-.652-.731-.029-1.432.049-2.146a.4.4,0,0,0-.008-.19,4.7,4.7,0,0,1-.054-3.121,2.39,2.39,0,0,0-.1-.756c-.153-1.36-.6-2.7-.209-4.1a1.129,1.129,0,0,0-.057-.566c-.495-1.786.2-3.647-.344-5.429a6.763,6.763,0,0,0-.2-3.383C2693.906,502.686,2693.877,501.616,2693.778,500.559Zm129.042-19.575h0c0,1.6-.029,3.2.013,4.8.019.66-.407,1.349.1,1.984.451-.428.91-.847,1.348-1.287a4.825,4.825,0,0,0,.733-.865.6.6,0,0,1,.6-.328,9.647,9.647,0,0,0,3.633-.7c.475-.2.753-.261.743-.815q-.06-3.357-.081-6.716a39.032,39.032,0,0,0-1.488-10.2,9.858,9.858,0,0,0-.7-1.557,1.389,1.389,0,0,0-.244-.278,2.183,2.183,0,0,0-.158.34c-.08.3-.043.712-.232.883a2.126,2.126,0,0,0-.528,1.768c-.02,1.855-.013,3.71-.019,5.565-.005,1.088-.013,2.175-.034,3.262,0,.077-.131.151-.2.227-.041-.049-.112-.1-.119-.148a9.262,9.262,0,0,1-.074-.95c-.007-2.172.042-4.345-.023-6.515a23.73,23.73,0,0,0-.43-3.215.8.8,0,0,0-.438-.564c-.378-.092-.519.259-.636.562-.068.179-.148.355-.206.537a30.975,30.975,0,0,0-1.553,9.6C2822.828,477.911,2822.82,479.447,2822.82,480.983Zm-278.075,24.9h-.1c0,.893-.022,1.786.005,2.677s.388,1.182,1.188.88a14.454,14.454,0,0,0,1.676-.868c.222-.119.432-.358.653-.364,1.67-.041,2.9-1.274,4.457-1.6a1.277,1.277,0,0,0,1.057-1.56c-.221-2.341-.052-4.723-.786-7.012-.291-.908-.431-1.864-.724-2.771a1.037,1.037,0,0,0-.726-.536c-.431-.064-.43.372-.454.67-.076.89-.158,1.782-.18,2.675-.031,1.214-.005,2.429-.013,3.644a4.371,4.371,0,0,1-.074.563,2.921,2.921,0,0,1-.091-.513c-.009-1.215.022-2.43-.016-3.644-.026-.827-.124-1.653-.227-2.475a2.059,2.059,0,0,0-1.529-1.9c-.673-.211-.853-.192-.967.56-.152,1.007-.27,2.019-.421,3.027-.012.083-.2.22-.264.2a.751.751,0,0,1-.427-.287.729.729,0,0,1-.021-.552,3.7,3.7,0,0,0-.126-2.8c-.047-.138-.221-.234-.337-.35-.11.141-.274.267-.321.426a22.587,22.587,0,0,0-1.229,6.369C2544.753,502.185,2544.745,504.032,2544.745,505.879Zm149.847-36.886c0,.964,0,1.794,0,2.623a2.152,2.152,0,0,0,.772,1.836c2.214,1.9,4.35,3.886,6.524,5.832a.376.376,0,0,0,.346.055c.081-.048.121-.214.128-.331.1-1.527.2-3.053.269-4.581.035-.764.04-1.531,0-2.3-.062-1.335-.231-2.667-.237-4a28.96,28.96,0,0,0-1.018-5.627.716.716,0,0,0-.5-.454.8.8,0,0,0-.619.34,3.7,3.7,0,0,0-.25.906c-.091.329-.182.168-.269-.007-.322-.642-.769-.661-1.414-.433a1.35,1.35,0,0,0-1.022,1.4c0,.447-.008.893-.026,1.34a5.377,5.377,0,0,1-.08.561,3.743,3.743,0,0,1-.1-.507c-.034-.508-.018-1.022-.083-1.525-.048-.377-.168-.775-.667-.788-.451-.011-.951-.028-1.131.5a7.4,7.4,0,0,0-.4,1.659C2694.7,466.7,2694.656,467.915,2694.592,468.993Zm-156.255,36.276h-.089c0,1.727,0,3.453,0,5.18,0,.639-.01,1.281.04,1.916.022.283.238.437.532.226.256-.182.565-.584.743-.531.94.281,1.239-.9,2.015-.826.861.079,1.142-1.036,2.021-.917.094.013.353-.386.349-.59a81.814,81.814,0,0,0-.293-8.419c-.381-3.027-1.194-6-1.835-8.992a1.053,1.053,0,0,0-.356-.646,5.359,5.359,0,0,0-1.355-.563c-.1-.026-.363.3-.435.508a25.267,25.267,0,0,0-1.327,7.7C2538.292,501.3,2538.336,503.285,2538.336,505.269Zm-30.793-52.7c.028.284.049.73.12,1.169.2,1.217.183,1.131,1.331.837.834-.213,1.533-.924,2.482-.688.287-.667,1.177-.234,1.4-.626.459-.8,1.239-.822,1.925-1.071a15.5,15.5,0,0,0,1.639-.44,1.492,1.492,0,0,0,1.044-1.393,19.046,19.046,0,0,0-1.039-5.415.972.972,0,0,0-.655-.579c-1.806-.238-3.519-.949-5.355-1.028-.988-.043-1.152.022-1.44.835A30.024,30.024,0,0,0,2507.543,452.574Zm137.235,72.331c-.063-3.16-.009-6.3-.229-9.425a35.456,35.456,0,0,0-1.083-5.234.347.347,0,0,0-.576-.238,2.2,2.2,0,0,1-.633.406c-1.023.227-1.27.985-1.3,1.865a11.306,11.306,0,0,0,.117,1.52,8.725,8.725,0,0,1,.169,1.514c-.244,3.179.358,6.316.471,9.478a22.281,22.281,0,0,0,.228,4.836c-.531.731.191,1.417.076,2.165a10.34,10.34,0,0,0,.07,2.283,18.9,18.9,0,0,1,.092,2.831,10.973,10.973,0,0,0,.382,2.623c.017.1.2.254.254.236a.647.647,0,0,0,.381-.277,1.7,1.7,0,0,0,.179-.738,5.451,5.451,0,0,1,.926-2.833,2.471,2.471,0,0,0,.315-1.653,6,6,0,0,1-.045-1.132C2644.637,530.382,2644.709,527.632,2644.778,524.906Zm-141.544-56.243-.11-.009c0-.9.013-1.793,0-2.689-.021-1.14-.059-1.19-1.2-.7-1.58.685-3.2,1.266-4.826,1.824-.974.335-1.793,1.028-2.936,1.056a2.67,2.67,0,0,0-1.71,1.1,1.533,1.533,0,0,0,.18,1.606c-.6,1.208.67,1.232,1.12,1.776.85-.511,1.557.3,2.368.253a5.486,5.486,0,0,1,2.814.365c.92.441,1.942,0,2.9.293.637.195.958-.022,1.037-.691C2503.034,471.46,2503.116,470.059,2503.234,468.663Zm142.232,49.076.054,0c-.118,3.132-.246,6.263-.349,9.4-.044,1.343-.039,2.688-.043,4.032a2.715,2.715,0,0,0,.114.553c.077-.161.236-.332.218-.483a5.915,5.915,0,0,1,.639-2.529,3.284,3.284,0,0,0,.333-1.06,10.5,10.5,0,0,1,.382-2.805,18.384,18.384,0,0,0,.834-4.475,2.07,2.07,0,0,1,.157-.931c.935-1.983.993-4.183,1.572-6.252.084-.3.04-.693.219-.9.85-.96.7-2.143.791-3.266a.648.648,0,0,0-.413-.492.7.7,0,0,0-.558.378c-.181,1.065-.29,2.142-.436,3.213-.015.109-.126.2-.195.307-.065-.1-.18-.192-.188-.294-.063-.764-.067-1.535-.164-2.294-.09-.693-.265-.654-1.13-.694-.7-.032-.873.247-1.038.805a16.155,16.155,0,0,0-.806,5.478C2645.5,516.2,2645.466,516.97,2645.466,517.739Zm-84.786-15.134.184-.045a6.78,6.78,0,0,1-.482-1.768c0-.631-.191-.945-.757-1.113-1.387-.411-2.4-1.669-3.928-1.774-.092-.006-.165-.179-.261-.256-.84-.665-.823-.654-1.093.367-.626,2.377-.14,4.813-.407,7.209-.044.4.276.49.655.352a4.385,4.385,0,0,1,1.792-.542c.927.122,1.566-.449,2.34-.657.5-.133.827-.763,1.505-.519.08.028.362-.3.434-.509A2.37,2.37,0,0,0,2560.68,502.605ZM2480.3,465.984c1.158-.5,2.325-.989,3.465-1.531a.75.75,0,0,0,.285-.645c-.189-.986-.448-1.958-.674-2.937-.264-1.141-.771-2.191-.962-3.387-.207-1.289-.049-2.818-1.292-3.826-.192-.155-.152-.6-.215-.907-.1-.5-.171-1.007-.3-1.5a2.97,2.97,0,0,0-.376-.657,2.2,2.2,0,0,0-.308.677c-.05.637-.034,1.279-.042,1.919q-.053,4.512-.1,9.025c-.011,1.088,0,2.177.019,3.266C2479.8,465.764,2479.9,465.973,2480.3,465.984Zm38.632-15.114c.077-.01.492.065.688-.108a5.832,5.832,0,0,1,2.433-.881c1.444-.45,2.886-.909,4.322-1.386a6.37,6.37,0,0,0,1.2-.551c.109-.065.14-.325.136-.493a.356.356,0,0,0-.243-.249,4.37,4.37,0,0,1-2.16-.642,8.86,8.86,0,0,0-3.609-1.113c-.685-.1-1.369-.211-2.051-.332-.614-.109-.854-.028-.967.578-.278,1.495-.511,3-.715,4.507C2517.906,450.661,2518.235,450.879,2518.934,450.871ZM2694.4,469.222l.11-.019c-.222-1.51-.44-3.02-.67-4.528-.051-.336-.221-.609-.612-.6-.466.006-.9.1-1.063.627a2.819,2.819,0,0,0-.082.565c-.023.254-.015.511-.053.763a1.151,1.151,0,0,1-.167.33,1.067,1.067,0,0,1-.2-.3c-.111-.411-.07-1.007-.331-1.2a1.836,1.836,0,0,0-1.282-.03,11.251,11.251,0,0,0-1.984.651c-.872.38-.965,1.3-.15,1.733a19.958,19.958,0,0,1,5.226,4.148,4.167,4.167,0,0,0,.929.579,4.738,4.738,0,0,0,.314-1C2694.437,470.376,2694.4,469.8,2694.4,469.222Zm-190.422-16.464v1.534c0,2.563-.011,2.537,2.338,1.279a1.034,1.034,0,0,0,.661-1,29.173,29.173,0,0,0-1.423-9.028,1.668,1.668,0,0,0-.175-.333c-.114.129-.284.24-.334.39A22.244,22.244,0,0,0,2503.977,452.758Zm92.679,60.863c0,1.663-.01,3.327.014,4.99a1.059,1.059,0,0,0,.283.595,2.058,2.058,0,0,0,.991-.421,1.352,1.352,0,0,0,.167-.913c-.115-1.78-.23-3.56-.406-5.335-.128-1.307-.342-2.6-.531-3.9-.017-.114-.13-.214-.2-.32-.105.107-.3.214-.3.323C2596.652,510.3,2596.657,511.959,2596.656,513.621Zm166.931-31.239.041-.011c-.161-.61-.3-1.229-.489-1.828-.24-.741-.384-.833-1.078-.735-.939.132-1.875.292-2.812.443a1.034,1.034,0,0,0-.178.064c.038.1.049.223.119.281.286.241.588.462.886.689a8.564,8.564,0,0,0,3.134,1.684c.423.1.6.069.436-.406C2763.628,482.5,2763.607,482.443,2763.587,482.383Zm2.921,1.858.14-.023c-.071-.56-.114-1.124-.221-1.677a4.686,4.686,0,0,1-.295-1.83c.055-.3-.265-.964-.411-.963-.49,0-.517.553-.593.919a26.92,26.92,0,0,0-.45,2.8,1.206,1.206,0,0,0,.349.815,8.187,8.187,0,0,0,1.136.925.418.418,0,0,0,.351.035.344.344,0,0,0,.167-.278A5.71,5.71,0,0,0,2766.509,484.241Zm-93.243,7.524h-.009c0,.7-.019,1.4.006,2.1.018.451.238.687.745.575.162-.036.354.1.538.116.335.024.5-.269.384-.474-.487-.86.1-2.09-.986-2.759-.163-.1-.1-.572-.134-.873a7.432,7.432,0,0,0-.066-.741.417.417,0,0,0-.251-.241c-.045-.016-.213.129-.216.2C2673.26,490.368,2673.265,491.067,2673.265,491.765Zm10.957,44.349h-.035c0-.572.008-1.144,0-1.716-.012-.7-.039-1.392-.059-2.088-.04.709-.087,1.419-.121,2.129-.088,1.891.244,3.807-.359,5.669a2.193,2.193,0,0,0-.006.758,1.166,1.166,0,0,0,.1.291,1.3,1.3,0,0,0,.174-.328,10.985,10.985,0,0,0,.3-1.666C2684.256,538.149,2684.222,537.13,2684.222,536.114ZM2599.253,518.6c-.13-1.154-.246-2.208-.371-3.26-.006-.055-.07-.1-.108-.153-.047.08-.136.159-.137.239-.014,1.129-.021,2.259-.01,3.387,0,.069.158.188.245.19a.435.435,0,0,0,.313-.153A.505.505,0,0,0,2599.253,518.6Z" transform="translate(-2452 -415.14)" fill="#fff"/>
        <path id="Tracciato_41" data-name="Tracciato 41" d="M2509.91,924.12c0-1.46-.006-2.921.01-4.381,0-.157.137-.312.211-.469a1.653,1.653,0,0,1,.194.513c.013,1.968.011,3.937.006,5.905,0,1.01-.012,2.02-.041,3.03a1.623,1.623,0,0,1-.189.49,1.774,1.774,0,0,1-.177-.52c-.014-1.522-.008-3.045-.008-4.568Z" transform="translate(-2491.336 -757.586)" fill="#fff"/>
        <path id="Tracciato_42" data-name="Tracciato 42" d="M2730.88,784.334c0,1.962,0,3.924-.008,5.886,0,.1-.118.207-.18.31a1.007,1.007,0,0,1-.14-.341q-.016-4.185-.008-8.371a1.01,1.01,0,0,1,.136-.34c.084.127.239.252.242.381.022.824.012,1.649.012,2.474Z" transform="translate(-2641.208 -663.987)" fill="#fff"/>
        <path id="Tracciato_43" data-name="Tracciato 43" d="M3107.333,762.291c0,.7.007,1.406-.007,2.109,0,.113-.1.225-.154.337-.062-.089-.177-.178-.178-.268q-.018-2.206,0-4.412c0-.072.13-.142.2-.213a1.006,1.006,0,0,1,.146.336c.013.7.006,1.407.006,2.11Z" transform="translate(-2896.919 -649.291)" fill="#fff"/>
        <path id="Tracciato_44" data-name="Tracciato 44" d="M3480.09,893.1c0,.567.005,1.135,0,1.7a1.561,1.561,0,0,1-.09.359,1.749,1.749,0,0,1-.072-.34c-.01-.567-.027-1.135-.007-1.7.023-.7.08-1.395.123-2.092V893.1Z" transform="translate(-3150.237 -738.405)" fill="#fff"/>
        <path id="Tracciato_45" data-name="Tracciato 45" d="M2600.768,882.728q.115-1.019.229-2.037c.575.615.211,1.361.265,2.044a15.118,15.118,0,0,1-.031,1.9c0,.109-.118.214-.182.321-.062-.106-.171-.21-.174-.317-.018-.634-.009-1.268-.009-1.9Z" transform="translate(-2553.055 -731.38)" fill="#fff"/>
        <path id="Tracciato_46" data-name="Tracciato 46" d="M2941.873,689.564c.024.228.083.667.107,1.107.006.1-.1.207-.158.311-.121-.114-.337-.222-.343-.342-.044-.694-.052-1.391-.04-2.086a3.628,3.628,0,0,1,.153-.716,4.823,4.823,0,0,1,.271.755A6.215,6.215,0,0,1,2941.873,689.564Z" transform="translate(-2784.463 -600.379)" fill="#fff"/>
        <path id="Tracciato_47" data-name="Tracciato 47" d="M3075.444,859.752a2.132,2.132,0,0,1-.034.561,1.745,1.745,0,0,1-.276.338c-.1-.14-.277-.271-.294-.421a9.547,9.547,0,0,1-.036-1.29c0-.087.122-.238.189-.239.1,0,.271.087.291.167C3075.372,859.219,3075.415,859.582,3075.444,859.752Z" transform="translate(-2875.056 -716.442)" fill="#fff"/>
        <path id="Tracciato_48" data-name="Tracciato 48" d="M2592.185,908.127a2.469,2.469,0,0,1-.073.468.3.3,0,0,1-.235.17.424.424,0,0,1-.28-.2,1.133,1.133,0,0,1-.128-.525,5.432,5.432,0,0,1,.176-1.417C2591.708,906.431,2592.175,907.275,2592.185,908.127Z" transform="translate(-2546.737 -748.976)" fill="#fff"/>
        <path id="Tracciato_49" data-name="Tracciato 49" d="M3602.972,814.367c.056-.413.08-.718.148-1.013.017-.072.185-.155.279-.15s.276.089.293.167a3.778,3.778,0,0,1,.106.9c-.012.532-.345.974-.5.786A2.591,2.591,0,0,1,3602.972,814.367Z" transform="translate(-3233.834 -685.538)" fill="#fff"/>
        <path id="Tracciato_50" data-name="Tracciato 50" d="M2889.2,717.046c-.021.443-.029.887-.066,1.329a1.007,1.007,0,0,1-.168.328c-.062-.1-.176-.195-.178-.293q-.025-1.426-.008-2.852c0-.108.107-.216.165-.324.066.1.186.192.189.292.019.506.008,1.013.008,1.52Z" transform="translate(-2748.691 -618.988)" fill="#fff"/>
        <path id="Tracciato_51" data-name="Tracciato 51" d="M2887.057,801.443c-.013.073-.05.314-.1.552-.011.052-.082.134-.116.13-.118-.016-.29-.027-.338-.1a1.539,1.539,0,0,1,.141-1.891.344.344,0,0,1,.26.02C2886.96,800.519,2887,800.893,2887.057,801.443Z" transform="translate(-2746.975 -676.643)" fill="#fff"/>
        <path id="Tracciato_52" data-name="Tracciato 52" d="M3549.645,797.389c0,.319.006.638,0,.956a2.794,2.794,0,0,1-.061.371,2.23,2.23,0,0,1-.1-.445c-.009-.637-.005-1.275,0-1.913a2.234,2.234,0,0,1,.066-.37,2.774,2.774,0,0,1,.087.444c.014.318,0,.637,0,.956Z" transform="translate(-3197.494 -673.844)" fill="#fff"/>
        <path id="Tracciato_53" data-name="Tracciato 53" d="M2656.206,558.808c.066-.458.14-.962.213-1.467a13.433,13.433,0,0,1,.028,1.509c-.038.437.387.92-.114,1.313C2656.293,559.731,2656.252,559.3,2656.206,558.808Z" transform="translate(-2590.713 -511.735)" fill="#fff"/>
        <path id="Tracciato_54" data-name="Tracciato 54" d="M3594.964,599.319c0-.629-.01-1.258.007-1.887a1.885,1.885,0,0,1,.139-.471,3.078,3.078,0,0,1,.093.541q-.015,1.981-.059,3.962a2.978,2.978,0,0,1-.089.487,4.8,4.8,0,0,1-.068-.556c-.009-.692,0-1.384,0-2.076Z" transform="translate(-3228.392 -538.648)" fill="#fff"/>
        <path id="Tracciato_55" data-name="Tracciato 55" d="M3584.389,605.562c0,.569.006,1.138,0,1.706a4.721,4.721,0,0,1-.078.556,3,3,0,0,1-.094-.509c-.011-.758-.017-1.517,0-2.275.012-.58.063-1.159.094-1.739.027.564.056,1.127.08,1.691C3584.4,605.182,3584.389,605.372,3584.389,605.562Z" transform="translate(-3221.084 -542.955)" fill="#fff"/>
        <path id="Tracciato_56" data-name="Tracciato 56" d="M3618.989,773.523c.133.938.271,1.875.386,2.814.013.1-.109.211-.168.317-.146-.1-.406-.193-.418-.309a4.25,4.25,0,0,1,.237-2.789Z" transform="translate(-3244.497 -658.583)" fill="#fff"/>
        <path id="Tracciato_57" data-name="Tracciato 57" d="M2573.429,517.442l.171-1.87c.05.626.125,1.251.143,1.877.015.568-.028,1.138-.054,1.706a2.116,2.116,0,0,1-.083.365,1.721,1.721,0,0,1-.082-.366c-.01-.569,0-1.138,0-1.707Z" transform="translate(-2534.485 -483.362)" fill="#fff"/>
        <path id="Tracciato_58" data-name="Tracciato 58" d="M3115.739,655.766c0,.44.009.88-.007,1.319a1,1,0,0,1-.141.326c-.1-.135-.28-.268-.284-.406-.026-.942-.023-1.885-.007-2.828,0-.144.127-.285.2-.428a1.831,1.831,0,0,1,.19.509c.025.5.009,1.005.009,1.508Z" transform="translate(-2902.559 -577.222)" fill="#fff"/>
      </g>
    </g>
    <g id="Raggruppa_6" data-name="Raggruppa 6" transform="translate(2541.44 592.674)">
      <path id="Tracciato_59" data-name="Tracciato 59" d="M2738.688,977.276l-.63,2.518a1.277,1.277,0,0,1-1.381,1.136h-5.8V968.692h5.683a1.119,1.119,0,0,1,1.223.944l.7,2.4-.49,1.748a2.316,2.316,0,0,1-.227.56,2,2,0,0,1,.262.612Zm-6.067-3.462h3.532c.139-.07.227-.35.332-.717l.279-1.067-.3-1.084c-.139-.507-.192-.629-.332-.717h-3.514Zm4.318,3.462-.3-1.172c-.122-.507-.209-.629-.3-.716h-3.724v3.969h3.707c.139-.07.227-.35.314-.717Z" transform="translate(-2730.873 -968.692)" fill="#fff"/>
      <path id="Tracciato_60" data-name="Tracciato 60" d="M2872.138,979.392l-.385,1.539h-6.119V968.692h1.748v10.7Z" transform="translate(-2822.415 -968.692)" fill="#fff"/>
      <path id="Tracciato_61" data-name="Tracciato 61" d="M3001.765,968.692V980.93h-1.748v-5.595h-4.2v5.595h-1.749V968.692h1.749v5.07h4.2v-5.07Z" transform="translate(-2909.659 -968.692)" fill="#fff"/>
      <path id="Tracciato_62" data-name="Tracciato 62" d="M3133.623,977.591h-4.056l-.8,3.339h-1.836l3.112-12.238h3.112l3.111,12.238h-1.835Zm-.366-1.573-1.382-5.752h-.56l-1.381,5.752Z" transform="translate(-2999.905 -968.692)" fill="#fff"/>
      <path id="Tracciato_63" data-name="Tracciato 63" d="M3268.075,978.2l1.783.367-.734,2.36h-4.808c-.734,0-1.242-.28-1.5-1.469l-1.015-4.651,1.049-4.79c.245-1.137.735-1.329,1.469-1.329h4.808l.734,2.36-1.783.367-.4-1.189h-2.937c-.122.052-.209.245-.3.664l-.875,3.916.787,3.689a1.406,1.406,0,0,0,.384.857h2.955Z" transform="translate(-3091.521 -968.692)" fill="#fff"/>
      <path id="Tracciato_64" data-name="Tracciato 64" d="M3402.862,974.933l2.342,6h-1.888l-2.238-5.56h-2.116v5.56h-1.748V968.692h1.748v5.14h2.186l2.238-5.14h1.818l-2.325,5.525A.8.8,0,0,0,3402.862,974.933Z" transform="translate(-3183.506 -968.692)" fill="#fff"/>
    </g>
  </g>
</svg>
