<svg xmlns="http://www.w3.org/2000/svg" width="119.807" height="116.622" viewBox="0 0 119.807 116.622">
  <g id="GitHub" transform="translate(-0.193 118.785)">
    <path id="Path_43" data-name="Path 43" d="M45.2-117c-10.9,2.9-18.7,7.4-27.2,16C9.3-92.4,4.9-84.7,2-73.4A60.07,60.07,0,0,0,7.2-30.7C12-21.5,23.6-10.2,33.1-5.6,43.4-.5,44.4-.8,44.8-9.1l.3-6.6H39.2c-7.5,0-11.6-2.3-14.7-8.4A28.482,28.482,0,0,0,19-31.4c-3.6-2.9-3.1-5.1.9-4.1,3.2.8,5.1,2.3,4.7,3.8-.1.7-.1.8.2.4.5-.9,3.2,1.1,3.2,2.5,0,.5-.4.6-1,.3-.5-.3-1-.1-1,.5,0,.7.6,1,1.4.7s2.2.3,3.1,1.3c3.9,4.3,13.7,3.7,15.3-.8.6-1.5,1.3-3.4,1.7-4.3.5-1.3-.2-1.8-3.5-2.3-6-.9-13.5-5-16.5-9-6-7.9-7.3-21.3-2.9-30.6a20.763,20.763,0,0,0,2.5-10.3,30.292,30.292,0,0,1,.4-7.7c.9-4,4.3-4,11.9-.1,5.5,2.8,5.9,2.8,13.2,1.8a45.934,45.934,0,0,1,14.8,0c7.3,1,7.7,1,13.2-1.8,7.6-3.9,11-3.9,11.9.1a30.292,30.292,0,0,1,.4,7.7A20.763,20.763,0,0,0,95.4-73c4.4,9.3,3.1,22.7-2.9,30.6-3.1,4.1-10.8,8.2-16.9,9l-4.5.7,1.7,2.5c1.3,2,1.8,5.7,2.2,15.1C75.6,0,75.6,0,86.9-5.6c9.5-4.6,21.1-15.9,25.9-25.1,4.2-8,7.2-19.8,7.2-28.3s-3-20.3-7.2-28.3c-4.2-8.1-16.4-20.3-24.5-24.5A61.684,61.684,0,0,0,45.2-117Z" fill="#fff"/>
    <path id="Path_44" data-name="Path 44" d="M29-24a1.075,1.075,0,0,0,1,1,1,1,0,0,0,1-1,.945.945,0,0,0-1-1A1,1,0,0,0,29-24Z" fill="#fff"/>
    <path id="Path_45" data-name="Path 45" d="M33-22a1.075,1.075,0,0,0,1,1,1,1,0,0,0,1-1,.945.945,0,0,0-1-1A1,1,0,0,0,33-22Z" fill="#fff"/>
    <path id="Path_46" data-name="Path 46" d="M42.5-22c-.3.5.1,1,1,1s1.3-.5,1-1c-.3-.6-.8-1-1-1S42.8-22.6,42.5-22Z" fill="#fff"/>
    <path id="Path_47" data-name="Path 47" d="M38-21a1.075,1.075,0,0,0,1,1,1,1,0,0,0,1-1,.945.945,0,0,0-1-1A1,1,0,0,0,38-21Z" fill="#fff"/>
  </g>
</svg>
